<svg width="646" height="943" xmlns="http://www.w3.org/2000/svg" xmlns:xlink="http://www.w3.org/1999/xlink" xml:space="preserve" overflow="hidden"><defs><clipPath id="clip0"><rect x="2689" y="1391" width="646" height="943"/></clipPath></defs><g clip-path="url(#clip0)" transform="translate(-2689 -1391)"><path d="M3275.55 1582.01C3274.06 1582.05 3272.55 1582.24 3271 1582.58 3262.78 1584.39 3253.76 1590.37 3241.93 1601.21 3230.12 1612.05 3215.64 1627.66 3200.34 1648.67 3185.06 1669.69 3169.05 1696.04 3155.03 1724.48 3141.01 1752.93 3128.94 1783.53 3119.32 1810.89 3109.69 1838.26 3102.51 1862.39 3096.41 1886.38 3090.84 1908.21 3086.27 1929.46 3083.58 1942.17 3080.24 1926.47 3076.62 1911.47 3072.71 1897.08 3067.22 1876.85 3061.02 1858.22 3054.81 1841.62 3046.64 1819.77 3039.05 1802.21 3031.47 1787.16 3017.63 1759.68 3006.82 1745.72 3004.71 1746.82 3002.6 1747.92 3009.63 1764.27 3019.6 1792.25 3025.31 1808.21 3030.79 1824.94 3037.53 1847.43 3042.49 1864.01 3047.55 1882.47 3052.06 1902.25 3056.59 1922.06 3060.71 1942.87 3064.58 1965.27 3068.22 1986.49 3071.3 2008.78 3073.13 2031.66 3073.24 2033.03 3073.35 2034.41 3073.45 2035.78 3075.43 2061.65 3076.31 2087.1 3076.66 2111.21 3076.82 2121.86 3076.78 2132.28 3076.62 2142.45 3074.22 2133.66 3070.12 2119.61 3063.11 2104.6 3055.15 2087.54 3043.53 2069.64 3030.16 2052.78 3016.77 2035.92 3001.63 2020.06 2982.28 2004.21 2962.94 1988.36 2939.42 1972.51 2916.19 1960.03 2892.97 1947.54 2870.14 1938.45 2847.43 1931.59 2824.75 1924.72 2802.23 1920.09 2785.61 1917.81 2768.99 1915.53 2758.33 1915.59 2750.35 1917.46 2742.37 1919.34 2737.11 1923.03 2733.89 1929.2 2730.67 1935.37 2729.47 1944.13 2730.21 1955.42 2730.96 1966.7 2733.64 1980.57 2738.51 1995.91 2743.38 2011.26 2750.46 2028.09 2759.88 2045.95 2769.31 2063.81 2781.09 2082.69 2793.36 2099.3 2805.6 2115.9 2818.33 2130.22 2833.36 2145.11 2848.38 2160 2865.72 2175.46 2882.12 2187.79 2898.52 2200.13 2914.08 2209.38 2931.22 2216.79 2948.37 2224.19 2967.15 2229.77 2987.43 2233.3 3007.72 2236.84 3029.51 2238.34 3044.99 2237.26 3057.89 2236.36 3066.45 2233.64 3072.07 2230.75 3071.3 2240.43 3070.45 2249.76 3069.51 2258.72 3064.7 2304.89 3060.19 2333.35 3063.15 2333.99 3066.13 2334.62 3075.98 2307.75 3085.17 2261.08 3089.63 2238.36 3093.28 2212.69 3096.15 2182.38 3098.25 2160.3 3099.64 2136.36 3099.8 2111.12 3099.92 2092.95 3099.6 2073.99 3098.6 2054.58 3099.63 2054.74 3100.78 2054.78 3102.16 2054.73 3110.48 2054.38 3126 2050.79 3141.32 2045.57 3156.64 2040.35 3171.78 2033.53 3188.34 2023.47 3204.89 2013.41 3222.78 2000.16 3238.16 1986.15 3253.55 1972.15 3266.45 1957.38 3278.78 1939.47 3291.1 1921.56 3302.84 1900.52 3311.13 1882.24 3319.42 1863.96 3324.24 1848.44 3327.71 1830.79 3331.2 1813.14 3333.35 1793.34 3334.35 1772.65 3335.37 1751.95 3335.26 1730.26 3333.52 1711.75 3331.78 1693.24 3328.4 1677.84 3325.05 1663.77 3321.7 1649.7 3318.35 1636.88 3313.19 1624.09 3308.04 1611.3 3301.01 1598.37 3293.83 1590.76 3287.98 1584.58 3282 1581.84 3275.55 1582.01" fill="#467BAF" fill-rule="evenodd"/><path d="M2909.1 1404C2885.15 1404.19 2859.14 1416.3 2845.67 1451.33 2831.35 1445.77 2754.87 1453.01 2768.65 1517.7 2768.85 1517.99 2769.07 1518.27 2769.27 1518.56 2787.34 1488.28 2827.96 1498.63 2838.65 1533.79L2838.81 1534.32C2850.73 1528.17 2862.67 1527.21 2872.21 1535 2874.64 1471.39 2917.31 1440.78 2948.26 1449.48 2944.23 1435.52 2945.62 1424.69 2950 1416.35 2940.2 1409.09 2925.11 1403.88 2909.1 1404" fill="#DE4A72" fill-rule="evenodd"/><path d="M2881.63 1402C2876.34 1402 2872.06 1406.56 2872.06 1412.2 2872.06 1414.9 2873.06 1417.49 2874.86 1419.41 2876.65 1421.32 2879.09 1422.39 2881.63 1422.39 2883.53 1422.39 2885.39 1421.78 2886.98 1420.65 2888.75 1423.52 2892.35 1428.54 2896.96 1434.6 2898.66 1437.5 2900.33 1440.7 2901.84 1444.18 2905.29 1452.11 2906.88 1459.04 2907.69 1464.7 2908.45 1470.13 2908.49 1473.62 2908.93 1473.64 2909.38 1473.67 2910.18 1470.19 2909.96 1464.47 2909.73 1458.57 2908.37 1451.01 2904.76 1442.74 2903.17 1439.09 2901.35 1435.77 2899.45 1432.84 2894.52 1426.87 2890.4 1422.18 2888 1419.8 2890.04 1417.86 2891.2 1415.1 2891.2 1412.2 2891.2 1406.56 2886.91 1402 2881.63 1402ZM2834.56 1409.68C2832.67 1409.68 2830.84 1410.37 2829.49 1411.61 2828.15 1412.85 2827.4 1414.53 2827.4 1416.28 2827.4 1419.93 2830.61 1422.88 2834.56 1422.88 2835.62 1422.88 2836.66 1422.67 2837.61 1422.25 2841.51 1427.24 2851.69 1438.73 2864.44 1452.51 2866.3 1454.8 2868.2 1457.18 2870.09 1459.62 2875.78 1467 2880.3 1473.66 2884.07 1480.32 2886.95 1485.42 2888.9 1489.65 2890.28 1493.72 2892.7 1500.95 2892.31 1505.68 2892.72 1505.73 2893.1 1505.77 2894.37 1501.03 2892.29 1493.11 2891.18 1488.81 2889.36 1484.22 2886.59 1478.93 2882.97 1472.02 2878.38 1465.02 2872.63 1457.55 2870.7 1455.06 2868.76 1452.66 2866.85 1450.37 2854.13 1436.91 2843.47 1426.09 2838.64 1421.7 2840.57 1420.47 2841.72 1418.44 2841.72 1416.28 2841.72 1414.53 2840.97 1412.85 2839.64 1411.61 2838.29 1410.37 2836.46 1409.68 2834.56 1409.68ZM2799.94 1428.41C2794.55 1428.41 2790.2 1432.87 2790.2 1438.38 2790.2 1442.44 2792.6 1446.1 2796.26 1447.63 2795.16 1450.78 2794.14 1455.08 2793.78 1460.51 2793.45 1465.37 2793.67 1470.71 2794.64 1476.45 2797.87 1495.39 2807.2 1508.66 2807.98 1508.22 2808.77 1507.78 2800.96 1494.08 2797.86 1475.9 2796.91 1470.38 2796.58 1465.31 2796.68 1460.64 2796.77 1455.39 2797.36 1451.35 2797.99 1448.15 2798.63 1448.29 2799.28 1448.36 2799.94 1448.36 2805.31 1448.36 2809.67 1443.89 2809.67 1438.38 2809.66 1432.87 2805.31 1428.41 2799.94 1428.41ZM2761.92 1454.86C2758.09 1454.86 2755 1457.9 2755 1461.64 2755 1465.29 2757.95 1468.28 2761.68 1468.41 2761.7 1469.19 2761.78 1470.12 2761.9 1471.19 2762.29 1474.54 2763.21 1479.12 2765 1484.27 2765.89 1486.84 2767 1489.55 2768.38 1492.29 2771.97 1499.44 2776.31 1504.52 2780.37 1507.83 2784.26 1511 2787.24 1512.08 2787.54 1511.6 2787.85 1511.11 2785.5 1509.2 2782.36 1505.7 2779 1501.98 2775.54 1497.24 2772.1 1490.39 2770.8 1487.82 2769.67 1485.27 2768.69 1482.87 2766.72 1478.01 2765.37 1473.8 2764.33 1470.65 2764.03 1469.73 2763.76 1468.93 2763.51 1468.23 2766.64 1467.51 2768.85 1464.78 2768.85 1461.64 2768.85 1457.9 2765.74 1454.86 2761.92 1454.86ZM2841.65 1475.94C2837.55 1475.94 2834.21 1479.51 2834.21 1483.92 2834.21 1488.21 2837.39 1491.74 2841.4 1491.88 2841.42 1492.17 2841.45 1492.48 2841.47 1492.8 2841.79 1496.61 2842.6 1501.88 2844.35 1507.8 2845.15 1510.59 2846.2 1513.54 2847.51 1516.52 2851.13 1524.76 2855.69 1530.57 2860.09 1534.4 2864.31 1538.05 2867.61 1539.32 2867.85 1538.93 2868.08 1538.55 2865.28 1536.62 2861.68 1532.74 2857.86 1528.62 2854.01 1523.12 2850.52 1515.18 2849.28 1512.34 2848.22 1509.51 2847.32 1506.86 2845.44 1501.19 2844.27 1496.17 2843.44 1492.49 2843.37 1492.2 2843.32 1491.97 2843.25 1491.7 2846.65 1490.89 2849.08 1487.65 2849.08 1483.92 2849.08 1479.51 2845.75 1475.94 2841.65 1475.94" fill="#FF8F8F" fill-rule="evenodd"/><path d="M2998.77 1391C2981.73 1391.12 2935.62 1403.24 2948.96 1449.76 2918.05 1441.01 2875.43 1471.8 2873 1535.79 2879.24 1540.93 2884.46 1549.85 2887.95 1563.58 2904.86 1526.53 2932.55 1509.12 2982.82 1532.8 2972.34 1508.11 2974.03 1422.66 3049.14 1465.35 3108.1 1508.96 3123.02 1563.12 3114.98 1613 3137.21 1539 3108.56 1401.59 3001.77 1391.13 3000.91 1391.04 2999.91 1390.99 2998.77 1391" fill="#EF516C" fill-rule="evenodd"/><path d="M2799.58 1501C2785.16 1500.76 2771 1509.78 2764.47 1530.3 2727.67 1482.25 2694.57 1546.56 2689.3 1567.89 2681.75 1725.65 2817.69 1772.15 2901 1772 2797.89 1760.33 2759.78 1654.53 2794.08 1584.65 2803.87 1564.41 2821.46 1543.93 2839.07 1534.8L2838.92 1534.27C2832.62 1513.46 2815.93 1501.28 2799.58 1501" fill="#EF516C" fill-rule="evenodd"/><path d="M3275.58 1582.01C3275.31 1582.01 3275.02 1582.04 3274.73 1582.06 3266.62 1588.89 3255.79 1598.76 3243.21 1612.02 3232.26 1623.54 3221.62 1637.68 3211.39 1655.25 3201.1 1672.93 3192.09 1691.02 3181.77 1712.36 3171.95 1732.69 3161.71 1754.84 3152.24 1777.92 3150.1 1783.13 3147.98 1788.42 3145.88 1793.75 3137.02 1816.31 3129.34 1838.16 3122.76 1859.56 3114.45 1886.59 3108.29 1911.84 3103.79 1935.28 3099.81 1956.05 3097.69 1975.08 3096.61 1991.45 3096.15 1998.57 3095.79 2006.61 3095.48 2014.38 3096.04 2019.57 3096.55 2024.78 3096.98 2030.05 3097.08 2031.19 3097.17 2032.34 3097.26 2033.48 3098.08 2022.79 3099.04 2008.67 3100.6 1991.77 3102.1 1975.56 3104.59 1956.76 3108.83 1936.28 3113.65 1913.08 3120.02 1888.12 3128.43 1861.32 3135.09 1840.11 3142.79 1818.45 3151.6 1796 3153.69 1790.7 3155.79 1785.44 3157.92 1780.24 3167.29 1757.33 3177.38 1735.2 3187.01 1714.87 3197.18 1693.4 3205.83 1675.49 3215.78 1657.76 3225.57 1640.31 3235.67 1626.28 3246.09 1614.69 3257.33 1602.18 3267.06 1592.5 3274.58 1585.32 3271.79 1590.65 3269.53 1594.98 3265.74 1602.22 3258.85 1615.33 3253.09 1625.95 3246.19 1639.05 3239.49 1651.81 3231.6 1667.06 3224.23 1682.71 3218.2 1695.53 3212.63 1708.67 3206.73 1723.06 3201.01 1737.05 3194.89 1752.29 3189.84 1767.85 3185.9 1780.07 3182.61 1792.45 3179.39 1805.33 3178.75 1807.85 3178.12 1810.37 3177.5 1812.87 3174.29 1825.86 3171.28 1838.11 3167.77 1850.37 3163.83 1864.15 3159.47 1877.32 3154.76 1889.89 3148.68 1906.12 3142.21 1921.38 3136.53 1935.86 3128.29 1956.86 3121.52 1975.76 3115.99 1992.31 3108.79 2013.89 3102.64 2034.71 3100.03 2043.99 3099.33 2046.46 3098.79 2048.4 3098.35 2050.04 3098.45 2051.67 3098.54 2053.3 3098.62 2054.92 3098.63 2054.92 3098.63 2054.92 3098.63 2054.93 3098.83 2054.72 3099 2054.56 3099.21 2054.34 3099.46 2054.27 3099.79 2054.18 3100.05 2054.11 3099.71 2054.43 3099.46 2054.7 3099.17 2055 3099.73 2055.06 3100.35 2055.09 3101.02 2055.09 3101.8 2054.48 3102.57 2053.87 3103.55 2053.14 3113.21 2050.41 3127.63 2045.55 3145.74 2037.45 3160.02 2031.05 3175.11 2022.37 3191.66 2010.52 3204.2 2001.56 3217.31 1990.88 3229.87 1978.29 3241.91 1966.24 3253.92 1952.52 3264.7 1937.08 3274.18 1923.48 3281.81 1908.41 3288.39 1892.21 3292.75 1881.52 3296.85 1870.43 3300.43 1859.03 3303.69 1848.65 3306.42 1838.27 3308.54 1827.86 3313.06 1805.49 3314.17 1783.03 3313.98 1762.19 3313.79 1740.08 3312.22 1718.45 3310.46 1699.22 3308.25 1674.89 3306.05 1655.51 3302.43 1636.36 3299.17 1619.23 3294.43 1603.73 3290.74 1592.77 3289.88 1590.25 3289.15 1588.15 3288.41 1586.01 3287.41 1585.32 3286.39 1584.73 3285.37 1584.21 3286.19 1587.03 3286.93 1589.54 3288.12 1593.59 3291.32 1604.58 3295.6 1620.21 3298.39 1637.08 3301.57 1656.22 3303.38 1675.23 3305.29 1699.66 3306.79 1718.82 3308.14 1740.37 3308.16 1762.21 3308.18 1782.82 3307.01 1804.88 3302.54 1826.65 3300.46 1836.82 3297.76 1846.98 3294.56 1857.19 3291.04 1868.39 3287.01 1879.33 3282.74 1889.92 3276.29 1905.83 3268.95 1920.53 3259.85 1933.72 3249.41 1948.88 3237.72 1962.46 3226 1974.46 3213.82 1986.93 3201.06 1997.6 3188.84 2006.65 3172.67 2018.62 3158.09 2027.45 3144.21 2034.14 3129.91 2041.04 3117.96 2045.86 3108.84 2049.26 3116.64 2043.61 3127.63 2035.8 3141.09 2025.14 3152.47 2016.11 3165.17 2005.05 3178.5 1991.67 3189.79 1980.35 3201.6 1967.48 3213.29 1953.07 3224.18 1939.62 3234.68 1924.67 3244.34 1908.24 3255.25 1889.69 3265.74 1869.3 3273.66 1847.39L3273.68 1847.34C3280.81 1827.51 3284.82 1807.11 3287.24 1787.65 3289.73 1767.59 3290.97 1748.51 3290.87 1730.13 3290.77 1711.42 3289.25 1694.02 3288.91 1678.06 3288.39 1653.73 3289 1632.39 3288.1 1615.24 3287.41 1602.04 3286.11 1591.66 3284.83 1583.96 3284.14 1583.64 3283.44 1583.35 3282.75 1583.11 3283.56 1590.93 3284.46 1601.74 3284.71 1615.36 3285.04 1632.38 3283.93 1653.57 3284.04 1678.13 3284.11 1694.3 3285.39 1711.74 3285.29 1730.13 3285.21 1748.24 3283.84 1767.05 3281.28 1786.9 3278.79 1806.05 3274.84 1826.01 3267.89 1845.25L3267.87 1845.31C3260.15 1866.72 3249.86 1886.82 3239.18 1905.23 3229.78 1921.45 3219.54 1936.24 3208.97 1949.6 3197.57 1963.97 3186.05 1976.88 3175.06 1988.29 3162.09 2001.77 3149.77 2012.99 3138.75 2022.26 3123.09 2035.45 3110.49 2044.96 3103.25 2051.25 3103.21 2051.3 3103.18 2051.32 3103.12 2051.36 3102.49 2051.59 3101.92 2051.79 3101.34 2052 3101.5 2051.8 3101.69 2051.58 3101.88 2051.37 3107.91 2046.49 3117.77 2037.65 3129.96 2024.47 3140.37 2013.21 3150.55 1999.97 3162.1 1982.68 3173.74 1965.24 3185.07 1946.49 3197.57 1924.52 3209.36 1903.81 3222.21 1880.18 3232.45 1855.23 3236.21 1846.04 3239.63 1836.61 3242.78 1826.91 3247.44 1812.51 3251.32 1798.08 3254.67 1784.05 3260.54 1759.53 3264.79 1736.07 3267.73 1713.82 3271.29 1686.7 3273.23 1661.96 3275.84 1640.67 3278.27 1620.95 3281.48 1603.95 3282.33 1590.32 3282.5 1587.76 3282.59 1585.36 3282.62 1583.07 3281.75 1582.78 3280.86 1582.53 3279.97 1582.36 3279.83 1584.8 3279.65 1587.31 3279.37 1590.08 3277.99 1603.45 3274.32 1620.14 3271.43 1640.08 3268.34 1661.43 3266.02 1686.19 3262.19 1713.06 3259.06 1735.1 3254.68 1758.32 3248.77 1782.62 3245.39 1796.54 3241.52 1810.81 3236.93 1825.01 3233.82 1834.58 3230.47 1843.87 3226.78 1852.91 3216.79 1877.47 3204.17 1901.01 3192.64 1921.74 3180.34 1943.83 3169.42 1962.5 3158.14 1980.08 3146.97 1997.51 3137.33 2010.7 3127.4 2022.19 3120.48 2030.21 3114.34 2036.74 3109.32 2041.89 3110.62 2040.08 3111.98 2038.14 3113.39 2036.01 3120.07 2025.95 3124.94 2016.66 3132.85 2001.75 3139.51 1989.22 3148.07 1972.95 3155.54 1956.58 3162.87 1940.5 3169.92 1922.73 3177.92 1904.24 3185.24 1887.32 3193.48 1869.72 3201.7 1851.3 3205.86 1841.98 3210.03 1832.37 3213.97 1822.59 3217.79 1813.14 3221.29 1803.76 3224.42 1794.34 3231.09 1774.23 3236.22 1753.67 3240.66 1734.97 3244.69 1717.91 3248.29 1701.68 3251.95 1686.62 3255.98 1670 3260.03 1654.72 3263.47 1640.95 3267.43 1625.15 3270.65 1611.41 3273.48 1600.26 3274.88 1594.74 3276.13 1589.92 3277.23 1585.68 3277.79 1584.47 3278.3 1583.33 3278.82 1582.19 3277.76 1582.04 3276.68 1581.98 3275.58 1582.01ZM3270.19 1600.69C3266.51 1613.18 3264.02 1622.69 3259.29 1639.86 3255.93 1652.08 3250.83 1670.16 3246.9 1685.35 3243.01 1700.43 3239.22 1716.65 3235.04 1733.61 3230.46 1752.21 3225.26 1772.62 3218.62 1792.41 3215.52 1801.68 3212.04 1810.93 3208.27 1820.29 3204.36 1829.97 3200.23 1839.53 3196.13 1848.81 3187.49 1868.29 3180.29 1883.76 3172.6 1901.96 3164.71 1920.64 3157.88 1938.44 3150.86 1954.48 3143.78 1970.66 3135.46 1987.31 3129.2 1999.87 3121.49 2015.34 3117.36 2023.99 3111.04 2034.53 3106.71 2041.75 3102.9 2047.22 3100.07 2051.1 3099.66 2051.49 3099.12 2052.03 3098.76 2052.37 3099.55 2050.5 3100.55 2047.91 3101.77 2044.55 3107.8 2027.96 3113.79 2010.24 3119.83 1993.65 3125.78 1977.28 3132.88 1958.64 3141.39 1937.82 3147.25 1923.49 3153.91 1908.29 3160.18 1891.95 3165.05 1879.27 3169.55 1865.97 3173.59 1852.05 3177.19 1839.67 3180.27 1827.32 3183.48 1814.35 3184.09 1811.85 3184.72 1809.33 3185.35 1806.82 3188.56 1793.99 3191.78 1781.74 3195.63 1769.71 3200.54 1754.4 3206.52 1739.23 3212.12 1725.24 3217.89 1710.81 3223.27 1697.76 3229.09 1684.96 3236.16 1669.41 3243.83 1653.91 3250.22 1641.12 3258.11 1625.27 3262.78 1616.17 3268.75 1603.73 3269.26 1602.66 3269.71 1601.72 3270.19 1600.69ZM2740.47 1921.87C2739.47 1922.56 2738.55 1923.34 2737.71 1924.18 2752.06 1928.64 2778.39 1936.4 2812.73 1947.87 2835.46 1955.47 2862.73 1966.03 2888.49 1981.57 2906.85 1992.61 2924.82 2005.38 2943.29 2019.93 2951.51 2026.39 2959.51 2032.96 2967.25 2039.48 2989.45 2058.18 3008.96 2076.45 3026.3 2094.37 3042.29 2110.92 3054.06 2125.51 3062.57 2141.34 3067.93 2151.32 3072.32 2160.5 3075.9 2168.62 3076.05 2164.64 3076.17 2160.59 3076.29 2156.51 3073.93 2150.86 3071.23 2144.85 3068.11 2138.49 3059.82 2121.69 3047.94 2106.02 3032.01 2088.95 3014.82 2070.51 2995.26 2051.74 2972.92 2032.76 2965.16 2026.15 2957.1 2019.5 2948.78 2012.95 2930.09 1998.25 2911.69 1985.33 2892.84 1974.25 2866.03 1958.5 2838.11 1948.28 2814.83 1941.26 2781.58 1931.22 2755.65 1924.93 2740.47 1921.87ZM2734.37 1928.56C2734.2 1928.85 2734.04 1929.15 2733.87 1929.45 2732.84 1931.44 2732.02 1933.74 2731.41 1936.27 2732.5 1937.07 2733.4 1937.72 2734.83 1938.76 2738 1943.84 2741.44 1949.28 2745.44 1955.52 2756.5 1972.73 2771.7 1995.77 2788.79 2019.5 2804.24 2040.99 2822.99 2065.56 2844.84 2088.07 2851.23 2094.64 2857.94 2101.09 2864.96 2107.39 2881.1 2121.87 2897.81 2134.57 2914.51 2145.65 2940.76 2163.04 2966.97 2176.64 2989.94 2187.16 3013.44 2197.92 3031.56 2204.7 3048.64 2209.2 3058.75 2211.85 3067.09 2213.3 3073.38 2214.04 3073.44 2213.22 3073.5 2212.41 3073.55 2211.58 3067.41 2210.3 3059.4 2208.38 3049.75 2205.34 3032.99 2200.06 3015.78 2192.96 2992.51 2181.69 2970.01 2170.76 2944.26 2156.91 2918.56 2139.59 2902.21 2128.56 2885.84 2116 2869.99 2101.79 2863.09 2095.6 2856.49 2089.28 2850.2 2082.85 2828.68 2060.87 2809.85 2036.66 2794.15 2015.57 2777.06 1992.6 2760.8 1969.27 2749.38 1952.87 2747.51 1950.19 2746.17 1948.27 2744.48 1945.84 2753.9 1952.81 2765.17 1961.29 2778.04 1971.43 2807.47 1994.62 2844.75 2025.56 2887.43 2057.89 2892.58 2061.79 2897.79 2065.69 2903.07 2069.61 2951.83 2105.79 2975.81 2121.9 3013.36 2151.8 3041.55 2174.24 3061.91 2193.88 3073.94 2205.88 3074.01 2204.67 3074.1 2203.51 3074.17 2202.28 3062.75 2189.38 3043.5 2169.7 3016.81 2147.54 2982.39 2118.97 2952.95 2098.23 2907.08 2064.2 2901.81 2060.28 2896.62 2056.41 2891.48 2052.54 2848.88 2020.42 2811.17 1989.95 2781.07 1967.46 2764.24 1954.9 2749.99 1945.12 2738.99 1937.98 2737.86 1936.38 2736.45 1934.34 2735.4 1932.85 2742.08 1936.16 2749.67 1940 2758.09 1944.47 2782.05 1957.15 2808.39 1972.27 2841.28 1992.92 2865.89 2008.38 2891.31 2025.15 2918.67 2043.97 2927.2 2049.82 2935.57 2055.65 2943.77 2061.4 2982.02 2088.28 3009.91 2108.58 3034.12 2135.53 3053.35 2156.84 3066.31 2176.78 3074.77 2191.76 3074.83 2190.58 3074.89 2189.41 3074.96 2188.22 3067.5 2173.49 3055.26 2151.4 3038.38 2131.77 3014.33 2103.93 2985.85 2082.52 2947.8 2055.66 2939.62 2049.86 2931.22 2044.01 2922.68 2038.13 2895.31 2019.32 2869.55 2002.53 2844.73 1987.34 2811.73 1967.15 2784.39 1952.18 2760.17 1940.39 2750.39 1935.61 2741.83 1931.75 2734.37 1928.56ZM2730.45 1941.49C2730.02 1944.98 2729.9 1948.87 2730.08 1953.13 2734.99 1967.04 2741.51 1983.52 2749.98 2001.95 2762.06 2028.25 2778.74 2056.66 2801.37 2085.57 2813.56 2101.14 2827.13 2116.62 2842.18 2131.61 2849.24 2138.64 2856.4 2145.35 2863.65 2151.75 2884.51 2170.16 2906.69 2184.17 2929.35 2193.73 2963.67 2208.2 2994.52 2215.87 3019.89 2219.71 3045.56 2223.59 3064.08 2221.75 3072.98 2219.95 3073.02 2219.38 3073.06 2218.77 3073.09 2218.2 3064.32 2218.73 3045.9 2219.51 3020.75 2214.7 2995.85 2209.96 2965.83 2201.72 2932.24 2187.02 2910.48 2177.5 2889.15 2163.75 2868.93 2145.79 2861.82 2139.47 2854.79 2132.85 2847.83 2125.94 2833.03 2111.18 2819.6 2096 2807.49 2080.75 2785.01 2052.45 2768.23 2024.85 2755.7 1999.24 2744.55 1976.49 2736.38 1956.83 2730.45 1941.49" fill="#81CDFF" fill-rule="evenodd"/><path d="M3009.06 1754.36C3083.7 1727.17 3187.38 1566.99 3049.04 1464.76 2973.83 1422.05 2972.14 1507.54 2982.63 1532.24 2932.29 1508.55 2904.56 1525.97 2887.63 1563.04 2870.89 1497.39 2815.03 1541.46 2794.28 1584.43 2749.89 1674.98 2826.82 1825.84 3009.06 1754.36" fill="#FF6075" fill-rule="evenodd"/></g></svg>