<svg width="667" height="1028" xmlns="http://www.w3.org/2000/svg" xmlns:xlink="http://www.w3.org/1999/xlink" xml:space="preserve" overflow="hidden"><defs><clipPath id="clip0"><rect x="1065" y="1286" width="667" height="1028"/></clipPath></defs><g clip-path="url(#clip0)" transform="translate(-1065 -1286)"><path d="M1297.1 1580C1295.8 1580.03 1293.97 1580.26 1291.36 1580.8 1285.4 1582.03 1275.38 1584.85 1266.02 1588.04 1256.66 1591.23 1247.99 1594.78 1240.02 1599.2 1232.06 1603.61 1224.8 1608.89 1218.85 1615.06 1212.9 1621.22 1208.24 1628.28 1204.4 1635.7 1201.18 1641.94 1198.57 1648.39 1196.51 1652.98 1195.33 1650.15 1194.15 1647.33 1192.86 1644.17 1182.77 1619.5 1177.08 1604.03 1175.36 1604.54 1173.64 1605.05 1176.12 1621.26 1184.03 1647.31 1185.44 1651.95 1187 1656.66 1188.63 1661.45 1184.82 1658.61 1179.33 1654.05 1173.58 1650.07 1167.4 1645.79 1160.93 1642.2 1153.46 1638.95 1145.99 1635.7 1137.52 1632.77 1129.08 1630.97 1120.64 1629.16 1112.24 1628.47 1104.24 1628.78 1096.24 1629.09 1088.64 1630.4 1082.16 1631.27 1075.69 1632.14 1070.34 1632.58 1067.46 1633.13 1064.59 1633.68 1064.2 1634.37 1066.45 1637.76 1068.72 1641.16 1073.65 1647.29 1078.46 1652.39 1083.28 1657.5 1087.97 1661.59 1094.23 1665.19 1100.49 1668.8 1108.38 1671.93 1118.12 1674.03 1127.86 1676.13 1139.56 1677.21 1149.11 1676.84 1158.65 1676.46 1166.08 1674.62 1171.9 1672.8 1177.73 1670.99 1181.94 1669.19 1185.91 1668.63 1187.72 1668.37 1189.48 1668.37 1191.03 1668.42 1193.84 1676.35 1196.99 1684.78 1200.65 1694.35 1205.82 1707.87 1211.99 1723.68 1218.97 1739.19 1216.74 1737.45 1214.02 1735.6 1210.85 1733.68 1204.53 1729.87 1196.41 1725.8 1188.37 1722.98 1180.33 1720.16 1172.36 1718.58 1162.85 1718.48 1153.34 1718.38 1142.27 1719.76 1133.69 1721.72 1125.1 1723.67 1118.95 1726.21 1115.6 1727.7 1112.25 1729.2 1111.69 1729.66 1112.3 1730.57 1112.91 1731.47 1114.68 1732.81 1118.65 1736.4 1122.62 1739.98 1128.78 1745.83 1136.25 1750.33 1143.73 1754.83 1152.56 1758.03 1161.78 1760.17 1171 1762.31 1180.6 1763.4 1189.11 1763.11 1197.62 1762.82 1205.03 1761.17 1211.14 1759.05 1217.26 1756.92 1222.08 1754.32 1224.38 1751.84 1224.49 1751.72 1224.6 1751.6 1224.7 1751.47 1227.55 1757.31 1230.56 1763.15 1233.73 1769.04 1237.17 1775.44 1240.68 1781.71 1244.15 1787.79 1249.39 1796.97 1254.59 1805.51 1259.87 1813.57 1255.59 1810.51 1250.4 1807.23 1244.93 1804.41 1238.25 1800.96 1231.14 1798.22 1222.76 1797.42 1214.37 1796.62 1204.69 1797.78 1194.43 1800.76 1184.17 1803.74 1173.32 1808.55 1165.87 1812.32 1158.42 1816.09 1154.39 1818.83 1152.48 1820.61 1150.56 1822.4 1150.77 1823.23 1153.36 1825.48 1155.95 1827.73 1160.92 1831.39 1169.15 1835.31 1177.37 1839.24 1188.85 1843.43 1198.7 1845.84 1208.55 1848.26 1216.75 1848.91 1223.76 1848.64 1230.76 1848.37 1236.51 1847.18 1242.15 1845.7 1247.8 1844.23 1253.34 1842.47 1258.51 1839.96 1263.68 1837.45 1268.48 1834.18 1270.88 1832.55 1271.6 1832.06 1272.09 1831.73 1272.44 1831.47 1275.68 1835.75 1279 1839.87 1282.43 1843.86 1292 1854.96 1301.81 1864.62 1310.14 1872.31 1315.59 1877.34 1320.35 1881.51 1324.72 1885.08 1321.27 1901.92 1318.36 1919.13 1315.87 1936.81 1315.85 1936.92 1315.84 1937.03 1315.82 1937.13 1312.32 1932.9 1307.88 1927.26 1301.96 1921.53 1294.71 1914.51 1285.26 1907.39 1275.26 1900.71 1265.26 1894.04 1254.71 1887.81 1242.86 1882.78 1231.01 1877.74 1217.85 1873.89 1206.26 1871.35 1194.68 1868.82 1184.7 1867.6 1175.44 1867.12 1166.19 1866.63 1157.69 1866.88 1152.86 1867.7 1148.04 1868.53 1146.91 1869.94 1147.86 1872.85 1148.81 1875.77 1151.85 1880.21 1156.32 1886.02 1160.8 1891.84 1166.72 1899.05 1173.22 1905.41 1179.71 1911.78 1186.81 1917.34 1194.56 1922.09 1202.31 1926.84 1210.73 1930.8 1221.53 1934.19 1232.33 1937.59 1245.54 1940.44 1258.99 1942.97 1272.45 1945.49 1286.17 1947.7 1297.33 1948.93 1303.94 1949.66 1309.62 1950.03 1314.12 1950.14 1313.83 1952.4 1313.5 1954.68 1313.23 1956.93 1310.28 1981.03 1308.39 2004.5 1307.42 2027.29 1304.71 2024.43 1299.38 2018.84 1291.09 2012.69 1282.71 2006.48 1271.35 1999.71 1261.64 1994.51 1251.93 1989.31 1243.89 1985.68 1235.53 1982.98 1227.16 1980.27 1218.53 1978.5 1208.44 1977.45 1198.35 1976.39 1186.84 1976.07 1180.56 1976.7 1174.27 1977.32 1173.21 1978.9 1175.26 1982.05 1177.32 1985.21 1182.5 1989.96 1190.74 1996.37 1198.98 2002.77 1210.33 2010.87 1219.74 2016.83 1229.16 2022.79 1236.67 2026.64 1245.67 2029.16 1254.68 2031.68 1265.18 2032.87 1275.28 2033.61 1285.38 2034.35 1295.09 2034.65 1301.32 2035.88 1303.7 2036.36 1305.57 2036.97 1307.05 2037.56 1306.96 2040.39 1306.87 2043.22 1306.82 2046.04 1306.16 2078.49 1307.16 2109.76 1308.68 2137.62 1310.33 2167.99 1312.35 2192.69 1316.35 2216.87 1319.06 2233.29 1322.61 2247.22 1326.75 2259.21 1324.24 2257.74 1321.33 2256.07 1317.99 2254.13 1310.5 2249.79 1299.79 2243.57 1289.51 2236.28 1280.26 2229.73 1270.69 2221.9 1261.35 2212.56 1260.4 2211.61 1259.46 2210.65 1258.51 2209.67 1258.21 2209.36 1257.94 2209.04 1257.64 2208.72 1259.18 2207.56 1260.91 2206.08 1262.89 2204.54 1266.34 2201.85 1270.56 2198.94 1274.35 2195.1 1278.14 2191.25 1281.5 2186.46 1284.07 2181.04 1286.63 2175.62 1288.4 2169.56 1289.67 2163.08 1290.94 2156.61 1291.71 2149.72 1292.08 2143.55 1292.45 2137.37 1292.41 2131.9 1291.44 2125.61 1290.47 2119.31 1288.56 2112.13 1287.01 2107.65 1285.47 2103.18 1284.26 2101.35 1282.77 2101.57 1281.28 2101.79 1279.48 2104.06 1276.62 2108.36 1273.75 2112.65 1269.78 2119.02 1266.09 2125.38 1262.4 2131.75 1258.98 2138.12 1256.54 2144.67 1254.1 2151.22 1252.66 2157.87 1251.55 2165.38 1250.44 2172.89 1249.67 2181.23 1249.97 2188.21 1250.24 2194.46 1251.36 2199.61 1252.09 2202.65 1247.14 2197.02 1242.62 2191.34 1238.54 2185.74 1231.21 2175.69 1225.57 2166.44 1221.05 2157.98 1211.98 2141.01 1207.24 2129.41 1205.93 2129.89 1204.61 2130.38 1206.85 2142.58 1214.67 2161.03 1217.48 2167.65 1221.09 2174.79 1225.61 2182.27 1220.31 2179.79 1213.88 2178.44 1206.78 2177.47 1198.74 2176.38 1189.86 2175.8 1181.75 2176.3 1173.64 2176.81 1166.29 2178.42 1158.82 2180.63 1151.35 2182.84 1143.75 2185.65 1138.58 2187.8 1133.39 2189.95 1130.57 2191.46 1129.2 2193.1 1127.83 2194.74 1127.9 2196.52 1130.62 2199.21 1133.34 2201.91 1138.71 2205.53 1144.58 2209.15 1150.44 2212.79 1156.81 2216.43 1163.38 2219.11 1169.95 2221.8 1176.72 2223.51 1183.76 2224.84 1190.8 2226.17 1198.11 2227.11 1206.02 2227.2 1213.92 2227.28 1222.43 2226.51 1230.52 2224.78 1238.61 2223.06 1246.3 2220.39 1250.11 2218.53 1251.17 2218.01 1251.92 2217.56 1252.45 2217.13 1253.16 2217.87 1253.89 2218.62 1254.62 2219.34 1263 2227.65 1271.69 2234.65 1280.23 2240.48 1276.69 2240.72 1272.22 2241.53 1267.02 2243.27 1260.99 2245.3 1253.99 2248.57 1246.88 2253.51 1239.77 2258.44 1232.52 2265.05 1226.71 2272.08 1220.91 2279.11 1216.53 2286.6 1213.28 2293.16 1210.03 2299.72 1207.91 2305.33 1207.31 2308.65 1206.72 2311.97 1207.66 2312.99 1210.1 2313.6 1212.54 2314.2 1216.46 2314.38 1222.46 2312.3 1228.45 2310.21 1236.51 2305.85 1244.51 2301.04 1252.5 2296.22 1260.39 2290.96 1267.08 2284.49 1273.78 2278.03 1279.27 2270.36 1283.78 2263.6 1288 2257.29 1291.36 2251.76 1292.56 2248.2 1301.01 2253.04 1309 2256.79 1315.32 2259.48 1320.72 2261.78 1325.24 2263.45 1328.67 2264.53 1329.46 2266.62 1330.27 2268.66 1331.09 2270.63 1341.68 2295.88 1351.2 2307.73 1352.87 2306.89 1354.12 2306.26 1350.76 2298.26 1346.02 2283.87 1346.05 2283.85 1346.08 2283.84 1346.11 2283.83 1349.56 2282.32 1355.45 2278.35 1360.99 2274.25 1366.52 2270.14 1371.72 2265.91 1376.51 2260.99 1381.29 2256.07 1385.68 2250.44 1389.42 2242.83 1393.16 2235.23 1396.29 2225.6 1398.06 2215.6 1399.83 2205.61 1400.26 2195.24 1399.42 2185.3 1398.58 2175.37 1396.47 2165.87 1394.9 2157.62 1393.33 2149.36 1392.3 2142.35 1391.25 2138.68 1390.2 2135.01 1389.11 2134.65 1387.5 2135.61 1385.89 2136.57 1383.74 2138.85 1379.88 2143.91 1376.03 2148.98 1370.45 2156.84 1365.73 2165.33 1361 2173.82 1357.12 2182.94 1353.5 2192.13 1349.87 2201.31 1346.49 2210.58 1344.53 2218.93 1342.58 2227.28 1342.05 2234.74 1341.98 2244.34 1341.91 2253.51 1342.27 2264.57 1342.17 2271.54 1341.74 2270.08 1341.31 2268.71 1340.87 2267.17 1336.75 2252.82 1333.46 2236.24 1331.35 2214.88 1329 2190.86 1328.34 2167.58 1327.82 2136.94 1327.67 2127.23 1327.58 2116.98 1327.55 2106.53 1331.19 2107.62 1335.36 2108.67 1340.11 2109.6 1352.45 2111.99 1368.2 2113.27 1386.53 2111.27 1389.55 2110.94 1392.6 2110.5 1395.65 2110.01 1395.55 2113.11 1396.46 2118.44 1398.3 2124.89 1400.52 2132.71 1404.09 2142.19 1407.89 2150.17 1411.7 2158.14 1415.75 2164.64 1421.16 2170.98 1426.57 2177.33 1433.35 2183.52 1440.93 2187.98 1448.51 2192.44 1456.93 2195.19 1462.13 2195.86 1467.32 2196.53 1469.31 2195.14 1469.97 2191.62 1470.62 2188.11 1469.93 2182.47 1468.02 2175.04 1466.1 2167.61 1462.94 2158.35 1458.54 2149.79 1454.15 2141.23 1448.53 2133.35 1443.25 2127.4 1437.97 2121.44 1433.02 2117.41 1427.43 2113.91 1422.18 2110.64 1416.36 2107.83 1411.91 2106.75 1419.93 2104.83 1428.19 2102.43 1436.85 2099.56 1451.34 2094.79 1466.86 2088.32 1481.43 2078.88 1481.5 2078.83 1481.59 2078.78 1481.66 2078.73 1483.48 2081.44 1485.42 2084.55 1487.68 2088.68 1491.36 2095.41 1495.88 2104.84 1501.78 2113.37 1507.69 2121.89 1514.96 2129.5 1523.22 2136.26 1531.47 2143.02 1540.73 2148.95 1549.71 2153 1558.7 2157.05 1567.42 2159.24 1574.5 2160.23 1581.57 2161.22 1586.98 2161 1590.74 2160.28 1594.51 2159.55 1596.6 2158.31 1597.47 2156.45 1598.35 2154.59 1598 2152.11 1595.86 2147.61 1593.72 2143.11 1589.78 2136.6 1584.77 2129.67 1579.77 2122.75 1573.72 2115.39 1566.92 2108.24 1560.12 2101.08 1552.56 2094.12 1544.8 2088.39 1537.05 2082.65 1529.05 2078.11 1521.9 2075.26 1514.75 2072.41 1508.4 2071.22 1502.35 2071.1 1498.67 2071.04 1495.1 2071.38 1491.57 2071.87 1502.04 2064.19 1512.05 2055.56 1521.83 2046.14 1523.53 2044.5 1525.2 2042.87 1526.85 2041.22 1538.35 2029.79 1548.76 2017.86 1558.23 2006.04 1559.68 2008.35 1562.34 2012.43 1566.94 2016.27 1571.86 2020.37 1579.03 2024.2 1586.75 2027.25 1594.48 2030.29 1602.8 2032.57 1610.39 2034.93 1617.98 2037.29 1624.84 2039.75 1631.54 2041.24 1638.23 2042.73 1644.77 2043.26 1651.53 2042.65 1658.29 2042.04 1665.27 2040.29 1668.71 2038.2 1672.16 2036.1 1672.07 2033.66 1669.36 2029.75 1666.66 2025.83 1661.32 2020.43 1653.72 2014.89 1646.13 2009.35 1636.3 2003.67 1627.32 2000.15 1618.34 1996.64 1610.23 1995.3 1601.82 1994.33 1593.42 1993.37 1584.72 1992.78 1577.52 1992.96 1573.87 1993.06 1570.6 1993.35 1567.78 1993.74 1580.4 1977.07 1591.18 1961.13 1600.29 1945.62 1606.69 1934.73 1612.17 1924.24 1616.92 1914.51 1617.63 1914.53 1618.36 1914.58 1619.09 1914.73 1621.53 1915.25 1623.98 1916.86 1628.59 1918.95 1633.19 1921.03 1639.98 1923.61 1646.62 1925.05 1653.26 1926.5 1659.81 1926.84 1666.18 1926.05 1672.56 1925.26 1678.75 1923.35 1685.8 1920.18 1692.85 1917.01 1700.75 1912.59 1707.18 1908.48 1713.6 1904.37 1718.54 1900.57 1721 1897.57 1723.46 1894.56 1723.44 1892.35 1722.06 1890.49 1720.68 1888.63 1717.94 1887.11 1712.5 1885.62 1707.07 1884.13 1698.95 1882.66 1690.91 1882.08 1682.88 1881.49 1674.96 1881.78 1667.81 1882.6 1660.67 1883.4 1654.32 1884.73 1648.7 1886.86 1643.09 1888.98 1638.23 1891.9 1632.69 1896.15 1628.7 1899.22 1624.35 1902.97 1621.07 1905.87 1623.08 1901.54 1624.94 1897.41 1626.59 1893.6 1637.35 1868.74 1641.78 1853.47 1640.35 1852.86 1638.93 1852.25 1631.81 1866.51 1619.13 1889.97 1612.58 1902.09 1603.89 1917.79 1593.6 1934.14 1594.71 1929.26 1595.87 1923.83 1596.66 1918.47 1598.1 1908.74 1598.36 1899.17 1596.95 1889.36 1595.54 1879.55 1592.47 1869.45 1588.17 1860.32 1583.86 1851.2 1578.32 1843.06 1573.83 1838.52 1569.33 1833.98 1565.89 1833.06 1563.45 1833.38 1561.01 1833.71 1559.56 1835.31 1558.28 1841.15 1557.01 1846.99 1555.89 1857.15 1555.6 1867.86 1555.3 1878.58 1555.84 1889.89 1558.34 1901.46 1560.85 1913.04 1565.32 1924.87 1570.11 1933.95 1574.39 1942.06 1578.93 1947.98 1582.17 1951.55 1574.06 1963.37 1565.06 1975.51 1554.87 1988.3 1544.74 2001.01 1533.6 2014.07 1521.38 2026.57 1522.63 2022.13 1524.24 2015.73 1525.14 2008.45 1526.34 1998.85 1526.3 1987.76 1524.61 1976.24 1522.91 1964.72 1519.54 1952.74 1515.75 1942.51 1511.95 1932.27 1507.71 1923.76 1504.06 1918.28 1500.4 1912.8 1497.33 1910.36 1495.2 1909.51 1493.07 1908.66 1491.83 1909.43 1490.51 1913.1 1489.19 1916.76 1487.76 1923.33 1486.32 1931.18 1484.88 1939.04 1483.42 1948.19 1482.99 1957.06 1482.57 1965.94 1483.17 1974.55 1485.18 1982.52 1487.2 1990.51 1490.63 1997.86 1494.84 2004.94 1499.06 2012.01 1504.04 2018.78 1507.16 2022.72 1510.26 2026.66 1511.5 2027.76 1512.83 2030.04 1513.4 2031.01 1513.98 2032.19 1514.56 2033.37 1513.7 2034.21 1512.85 2035.05 1511.99 2035.88 1499.5 2047.87 1487.04 2058.47 1473.81 2067.32 1460.77 2076.09 1446.34 2082.46 1432.66 2087.46 1422.92 2091 1413.88 2093.92 1405.18 2096.26 1405.65 2095.05 1406.21 2093.74 1406.97 2092.26 1409.45 2087.37 1413.83 2080.88 1416.96 2073.64 1420.09 2066.41 1421.97 2058.44 1422.9 2049.34 1423.83 2040.23 1423.79 2029.98 1423.23 2019.94 1422.66 2009.91 1421.56 2000.07 1420.35 1993.25 1419.13 1986.44 1417.79 1982.61 1416.48 1980.93 1415.17 1979.24 1413.88 1979.67 1410.82 1984.56 1407.76 1989.45 1402.92 1998.8 1398.58 2009.54 1394.24 2020.28 1390.39 2032.42 1388.81 2043.11 1387.22 2053.81 1387.9 2063.09 1389.77 2072.63 1391.63 2082.16 1394.7 2091.97 1396.24 2096.88 1396.5 2097.71 1396.53 2097.8 1396.71 2098.38 1392.79 2099.27 1388.94 2100.03 1385.09 2100.66 1367.95 2103.47 1353.1 2103.42 1341.13 2102.36 1336.02 2101.93 1331.49 2101.33 1327.54 2100.71 1327.54 2083.25 1327.76 2065.12 1328.48 2046.67 1329.48 2020.59 1331.6 1993.57 1334.95 1965.61 1339.1 1966.29 1344.76 1966.76 1350.68 1966.83 1358.73 1966.92 1367.26 1966.27 1376.42 1964.28 1385.58 1962.29 1395.37 1958.95 1404.72 1954.77 1414.09 1950.59 1423 1945.57 1431.34 1939.81 1439.67 1934.04 1447.42 1927.53 1454.89 1920.91 1462.35 1914.29 1469.53 1907.55 1476.01 1900.64 1482.5 1893.73 1488.32 1886.63 1491.44 1882.23 1494.56 1877.83 1494.99 1876.11 1492.64 1875.33 1490.29 1874.55 1485.16 1874.71 1477.32 1875.54 1469.48 1876.36 1458.9 1877.86 1449.7 1879.7 1440.5 1881.54 1432.57 1883.73 1424.01 1886.75 1415.46 1889.77 1406.18 1893.66 1397.05 1898.07 1387.93 1902.47 1378.91 1907.43 1371.23 1912.78 1363.55 1918.12 1357.19 1923.89 1350.5 1931.08 1345.95 1935.96 1341.27 1941.49 1337.46 1946.18 1337.74 1944.11 1337.99 1942.05 1338.28 1939.98 1341.66 1915.95 1345.65 1892.98 1350.63 1870.7 1353.39 1858.27 1356.69 1845.8 1360.17 1833.59 1360.82 1833.59 1361.52 1833.64 1362.29 1833.79 1367.57 1834.81 1375.98 1839.85 1383.89 1842.84 1391.81 1845.84 1399.22 1846.77 1407.57 1846.86 1415.92 1846.96 1425.23 1846.24 1433.96 1844.84 1442.68 1843.44 1450.77 1841.37 1459.49 1838.22 1468.2 1835.07 1477.54 1830.83 1486.64 1825.59 1495.73 1820.36 1504.6 1814.12 1512.29 1808.17 1519.98 1802.23 1526.5 1796.59 1529.89 1793.22 1533.27 1789.84 1533.54 1788.69 1530.17 1787.18 1526.81 1785.65 1519.81 1783.69 1511.36 1782.03 1502.92 1780.38 1492.98 1779.04 1482.02 1779.04 1471.06 1779.04 1459.06 1780.39 1448.87 1782.98 1438.68 1785.56 1430.26 1789.4 1421.75 1792.84 1413.23 1796.29 1404.57 1799.35 1396.47 1802.69 1388.36 1806.02 1380.78 1809.63 1374.1 1814.16 1370.14 1816.84 1366.51 1819.84 1363.39 1822.65 1366.19 1813.21 1369.02 1803.94 1371.76 1795.11 1379.51 1770.16 1386.35 1748.7 1393.28 1728.21 1395.18 1729.18 1397.49 1730.15 1400.32 1731.12 1407.76 1733.66 1418.69 1736.18 1429.25 1737.84 1439.8 1739.49 1449.95 1740.3 1462.11 1739.74 1474.26 1739.17 1488.41 1737.22 1501.1 1734.16 1513.8 1731.08 1525.05 1726.89 1533.67 1723.16 1542.28 1719.44 1548.23 1716.19 1551.77 1713.73 1555.3 1711.26 1556.41 1709.57 1553.54 1707.43 1550.67 1705.28 1543.83 1702.6 1533.62 1699.82 1523.41 1697.04 1509.77 1694.13 1495.92 1693.07 1482.08 1692.01 1467.99 1692.8 1455.05 1694.68 1442.12 1696.56 1430.32 1699.53 1419.93 1703.28 1411.6 1706.28 1404.23 1709.77 1398.78 1712.32 1399.6 1709.95 1400.41 1707.55 1401.25 1705.19 1427.46 1631.46 1445.5 1584.9 1442.37 1583.56 1439.25 1582.23 1415.72 1626.06 1385.34 1699.04 1374.09 1726.1 1363.55 1754.89 1352.06 1788.69 1344.08 1812.15 1335.38 1838.57 1328.97 1865.71 1328.17 1869.12 1327.4 1872.55 1326.65 1875.99 1323.85 1872.99 1320.81 1869.68 1317 1865.49 1309.56 1857.31 1300.48 1847.09 1291.89 1836.08 1289.92 1833.56 1288.01 1830.98 1286.11 1828.38 1289.65 1826.2 1294.53 1822.41 1299.74 1818.32 1305.41 1813.87 1311.5 1809.04 1316.45 1803.64 1321.39 1798.23 1325.21 1792.22 1328.05 1785.6 1330.89 1778.98 1332.78 1771.71 1334.5 1764.32 1336.21 1756.91 1337.76 1749.37 1338.22 1743.63 1338.68 1737.89 1338.07 1733.95 1337.08 1731.74 1336.09 1729.53 1334.74 1729.05 1332.06 1730.22 1329.39 1731.39 1325.4 1734.19 1320.11 1739.02 1314.82 1743.86 1308.24 1750.72 1301.84 1759.06 1295.44 1767.4 1289.2 1777.26 1284.91 1785.61 1280.62 1793.96 1278.29 1800.82 1277.68 1806.74 1277.3 1810.4 1277.59 1813.71 1277.94 1816.63 1270.78 1805.82 1263.83 1794.08 1256.42 1780.84 1253.05 1774.79 1249.6 1768.56 1246.23 1762.3 1244.41 1758.92 1242.68 1755.59 1240.96 1752.27 1241.65 1752.1 1242.37 1751.92 1243.13 1751.73 1248.53 1750.34 1255.68 1748.43 1262.99 1745.03 1270.28 1741.63 1277.72 1736.75 1284.53 1730.38 1291.33 1724.01 1297.49 1716.17 1302.64 1707.93 1307.81 1699.7 1311.98 1691.06 1315.01 1684.09 1318.03 1677.12 1319.93 1671.76 1319.85 1668.55 1319.78 1665.33 1317.75 1664.2 1312.76 1665.05 1307.78 1665.9 1299.82 1668.73 1293.02 1672.18 1286.22 1675.64 1280.59 1679.71 1274.61 1684.91 1268.64 1690.11 1262.32 1696.45 1256.92 1702.86 1251.52 1709.26 1247.01 1715.74 1243.29 1723.18 1240.12 1729.53 1237.59 1736.44 1235.66 1741.73 1234.86 1740.09 1234 1738.44 1233.22 1736.8 1225.71 1721.06 1218.34 1703.59 1212.29 1689.6 1207.61 1678.77 1204.18 1670.93 1200.99 1663.54 1204.03 1663.64 1207.83 1663.57 1212.53 1662.99 1218.98 1662.2 1227.11 1660.47 1235.16 1657.18 1243.21 1653.89 1251.21 1649.02 1258.79 1642.73 1266.37 1636.43 1273.58 1628.66 1279.48 1621.34 1285.39 1614.03 1290.01 1607.11 1293.27 1600.95 1296.53 1594.79 1298.46 1589.3 1299.54 1586 1300.61 1582.69 1300.86 1581.49 1300.03 1580.71 1299.57 1580.28 1298.77 1579.97 1297.1 1580" fill="#8FC5F1" fill-rule="evenodd"/><path d="M1176.39 1609.91C1228.13 1601.91 1250.27 1559.87 1235.52 1530.93 1225.54 1515.48 1202.43 1512.49 1191.73 1537.47 1200.05 1505.14 1132.65 1482.27 1132.23 1542.76 1112.94 1520.12 1093.65 1539.2 1093.1 1557.32 1091.1 1582.32 1118.56 1621.49 1176.39 1609.91" fill="#F1CBFF" fill-rule="evenodd"/><path d="M1640.93 1860.46C1686.6 1878.46 1725.68 1838.51 1723.94 1818.23 1721.57 1802.18 1701.59 1792.97 1687.51 1809.31 1697.9 1778.83 1666.72 1754.98 1643.68 1787.65 1649.7 1767.15 1620.95 1751.55 1609.47 1777.89 1591.48 1826.05 1613.92 1846.69 1640.93 1860.46" fill="#F1CBFF" fill-rule="evenodd"/><path d="M1208.91 2138.06C1218.64 2136.48 1265.25 2105.72 1241.18 2058.02 1232.55 2044.69 1215.5 2039.19 1204.69 2063.67 1195.79 2021.15 1149.09 2028.83 1159.09 2078.47 1145.31 2057.69 1126.03 2072.82 1130.72 2096.21 1139.94 2124.1 1168.89 2149.87 1208.91 2138.06" fill="#F1CBFF" fill-rule="evenodd"/><path d="M1417.98 1642.89C1281.63 1564.4 1225.95 1441.15 1252.39 1342.59 1264.41 1308.77 1302.11 1306.67 1313.47 1323.06 1348.56 1261.78 1412.03 1288.46 1412.73 1317.95 1435.39 1284.64 1493.83 1288.49 1507.77 1334.2 1550.3 1300.25 1622.02 1346.34 1614.85 1388.32 1678.41 1383.09 1701.32 1431.77 1685.6 1470.07 1718.71 1479.55 1739.25 1495.71 1729.62 1544.42 1698.83 1659.7 1586.31 1682.77 1417.98 1642.89" fill="#F1CBFF" fill-rule="evenodd"/><path d="M1418.52 1643.7C1345.36 1615.14 1274.89 1484.78 1324.73 1410.58 1340.27 1382.82 1407.94 1360.45 1416.91 1449.36 1475.27 1356.9 1546.14 1433.45 1525.33 1488.92 1569.22 1454.58 1636.14 1469.48 1625.96 1540.05 1613.77 1625.59 1519.38 1663.93 1418.52 1643.7" fill="#C199E6" fill-rule="evenodd"/><path d="M1184.38 1607.58C1215.11 1598.2 1224.83 1569.27 1213.3 1551.81 1205.87 1542.65 1191.56 1542.61 1187.28 1559.59 1189.46 1538.06 1146.48 1528.8 1151.59 1567.86 1137.86 1554.83 1127.84 1568.71 1129.11 1580.45 1130.11 1596.73 1150.27 1619.76 1184.38 1607.58" fill="#C199E6" fill-rule="evenodd"/><path d="M1644.1 1860.46C1670.78 1868.33 1690.85 1844.01 1688.86 1832.72 1686.72 1823.83 1674.99 1819.64 1667.85 1829.49 1672.2 1811.89 1653.42 1800.03 1642.04 1819.49 1644.41 1807.69 1627.41 1800.35 1622.23 1815.69 1614.48 1843.58 1628.17 1854.06 1644.1 1860.46" fill="#C199E6" fill-rule="evenodd"/><path d="M1208.48 2138.32C1214.08 2137.42 1240.94 2119.84 1227.07 2092.59 1222.09 2084.97 1212.27 2081.82 1206.04 2095.81 1200.92 2071.52 1174 2075.9 1179.76 2104.27 1171.82 2092.4 1160.71 2101.04 1163.41 2114.41 1168.73 2130.34 1185.41 2145.07 1208.48 2138.32" fill="#C199E6" fill-rule="evenodd"/></g></svg>