<svg width="637" height="921" xmlns="http://www.w3.org/2000/svg" xmlns:xlink="http://www.w3.org/1999/xlink" xml:space="preserve" overflow="hidden"><defs><clipPath id="clip0"><rect x="1910" y="1371" width="637" height="921"/></clipPath></defs><g clip-path="url(#clip0)" transform="translate(-1910 -1371)"><path d="M2314.98 1694.49C2309.42 1690.47 2298.28 1682.45 2285.61 1670.2 2272.94 1657.96 2258.77 1641.52 2248.45 1624.31 2238.12 1607.1 2231.65 1589.15 2228.43 1570.17 2225.22 1551.19 2225.27 1531.18 2228.11 1508.59 2230.94 1486.01 2236.58 1460.82 2241.72 1440.71 2246.86 1420.61 2251.52 1405.57 2255.47 1394.78 2259.4 1383.98 2262.62 1377.4 2265.16 1373.95 2267.69 1370.49 2269.55 1370.14 2272.65 1372.55 2275.75 1374.97 2280.12 1380.18 2286.28 1388.34 2292.44 1396.51 2300.45 1407.67 2307.69 1421.69 2314.93 1435.71 2321.45 1452.68 2326.92 1469.38 2332.39 1486.08 2336.83 1502.56 2339.02 1518.03 2341.21 1533.52 2341.14 1548.09 2340.86 1573.67 2340.6 1599.26 2340.14 1635.89 2339 1655.89 2337.86 1675.9 2336.06 1679.24 2334.24 1682.37 2332.42 1685.5 2330.63 1688.36 2328.34 1691.01 2326.06 1693.66 2323.3 1696.08 2321.93 1697.29 2320.55 1698.5 2320.55 1698.5 2314.98 1694.49" fill="#56C2C3" fill-rule="evenodd"/><path d="M2208.44 2125.58C2204.81 2119.93 2197.57 2108.63 2189.32 2099 2181.08 2089.37 2171.91 2081.47 2161.18 2073.38 2150.46 2065.28 2138.21 2057.01 2124.96 2049.8 2111.74 2042.58 2097.51 2036.43 2084.73 2031.95 2071.97 2027.47 2060.72 2024.69 2047.06 2022.41 2033.4 2020.15 2017.41 2018.4 2002.1 2017.55 1986.79 2016.7 1972.18 2016.74 1959.15 2018.35 1946.12 2019.95 1934.66 2023.11 1927.14 2025.08 1919.61 2027.05 1915.93 2027.85 1913.45 2028.86 1910.97 2029.87 1909.67 2031.08 1910.07 2034.3 1910.48 2037.52 1912.58 2042.69 1917.44 2050.76 1922.3 2058.83 1929.93 2069.8 1940.05 2081.3 1950.17 2092.8 1962.79 2104.85 1976.35 2116.04 1989.9 2127.23 2004.38 2137.54 2020.1 2146.77 2035.83 2155.98 2052.79 2164.1 2069.12 2169.97 2085.45 2175.85 2101.16 2179.47 2115.79 2181.05 2130.44 2182.63 2144.03 2182.17 2157.05 2180.15 2170.06 2178.12 2182.56 2174.51 2193.52 2169.7 2204.46 2164.89 2213.96 2158.82 2218.43 2154.59 2222.89 2150.36 2222.36 2147.89 2221.16 2144.82 2219.96 2141.76 2218.09 2138.07 2216.46 2135.7 2214.83 2133.33 2213.46 2132.28 2212.77 2131.76 2212.07 2131.24 2212.07 2131.24 2208.44 2125.58" fill="#FFFF00" fill-rule="evenodd"/><path d="M2208.44 2125.58C2204.81 2119.93 2197.57 2108.63 2189.32 2099 2181.08 2089.37 2171.91 2081.47 2161.18 2073.38 2150.46 2065.28 2138.21 2057.01 2124.96 2049.8 2111.74 2042.58 2097.51 2036.43 2084.73 2031.95 2071.97 2027.47 2060.72 2024.69 2047.06 2022.41 2033.4 2020.15 2017.41 2018.4 2002.1 2017.55 1986.79 2016.7 1972.18 2016.74 1959.15 2018.35 1946.12 2019.95 1934.66 2023.11 1927.14 2025.08 1919.61 2027.05 1915.93 2027.85 1913.45 2028.86 1910.97 2029.87 1909.67 2031.08 1910.07 2034.3 1910.48 2037.52 1912.58 2042.69 1917.44 2050.76 1922.3 2058.83 1929.93 2069.8 1940.05 2081.3 1950.17 2092.8 1962.79 2104.85 1976.35 2116.04 1989.9 2127.23 2004.38 2137.54 2020.1 2146.77 2035.83 2155.98 2052.79 2164.1 2069.12 2169.97 2085.45 2175.85 2101.16 2179.47 2115.79 2181.05 2130.44 2182.63 2144.03 2182.17 2157.05 2180.15 2170.06 2178.12 2182.56 2174.51 2193.52 2169.7 2204.46 2164.89 2213.96 2158.82 2218.43 2154.59 2222.89 2150.36 2222.36 2147.89 2221.16 2144.82 2219.96 2141.76 2218.09 2138.07 2216.46 2135.7 2214.83 2133.33 2213.46 2132.28 2212.77 2131.76 2212.07 2131.24 2212.07 2131.24 2208.44 2125.58" fill="#56C2C3" fill-rule="evenodd"/><path d="M2268.26 1371C2267.2 1371.31 2266.16 1372.23 2264.99 1373.83 2262.44 1377.29 2259.2 1383.88 2255.25 1394.69 2251.28 1405.51 2246.59 1420.56 2241.42 1440.7 2236.25 1460.84 2230.58 1486.07 2227.73 1508.69 2224.87 1531.32 2224.83 1551.36 2228.05 1570.38 2231.28 1589.39 2237.8 1607.37 2248.19 1624.6 2258.57 1641.84 2272.82 1658.31 2285.57 1670.57 2298.31 1682.84 2309.51 1690.88 2315.1 1694.9 2318.28 1697.18 2319.65 1698.16 2320.5 1698.37 2312.37 1710.11 2302.89 1724.65 2293.5 1741.29 2283.25 1759.46 2274.23 1779.27 2265.07 1802.35 2256.26 1824.53 2247.38 1848.37 2238.87 1873.52 2238.2 1875.51 2237.53 1877.52 2236.86 1879.53 2235.66 1883.09 2234.5 1886.63 2233.36 1890.16 2227.44 1908.4 2222.7 1926.11 2219.6 1943.84 2215.94 1964.8 2213.45 1985.53 2211.53 2003.84 2208.29 2034.68 2206.56 2057.67 2206.16 2079.12 2206.06 2084.77 2206.1 2089.95 2206.24 2094.65 2204.5 2089.84 2202.79 2085.07 2201.17 2080.35 2193.19 2057.17 2186.8 2035.76 2181.6 2015.84 2177.15 1998.79 2174.26 1984.21 2172.46 1970.71 2168.32 1939.61 2167.1 1920.32 2165.86 1920.39 2164.63 1920.45 2163.58 1939.63 2166.05 1971.38 2167.14 1985.23 2169.51 2000.41 2173.52 2017.82 2178.19 2038.08 2184.27 2059.95 2192.11 2083.42 2195.97 2094.98 2200.24 2106.81 2204.94 2118.78 2207.89 2126.25 2210.92 2133.53 2214.02 2140.64 2201.34 2133.08 2183.56 2123.46 2165.05 2114.52 2141.3 2103.06 2116.52 2092.82 2090.11 2083.38 2063.73 2073.94 2035.62 2065.25 2011.14 2058.32 1986.65 2051.38 1965.73 2046.17 1946.77 2041.63 1932.67 2038.26 1919.64 2035.24 1910 2033.57 1910 2033.85 1910.01 2034.13 1910.06 2034.45 1910.46 2037.68 1912.57 2042.86 1917.43 2050.94 1922.3 2059.02 1929.94 2070 1940.07 2081.52 1950.21 2093.03 1962.84 2105.1 1976.42 2116.3 1990 2127.51 2004.49 2137.84 2020.23 2147.07 2035.98 2156.3 2052.96 2164.43 2069.31 2170.31 2085.67 2176.19 2101.39 2179.82 2116.05 2181.4 2130.72 2182.99 2144.32 2182.53 2157.36 2180.5 2170.39 2178.47 2182.91 2174.86 2193.88 2170.04 2204.84 2165.22 2214.36 2159.14 2218.83 2154.9 2219.26 2154.5 2219.63 2154.11 2219.97 2153.73 2220.92 2155.76 2221.87 2157.8 2222.82 2159.8 2235.89 2186.89 2250.3 2210.76 2263.22 2230.16 2289.5 2269.64 2309.06 2292.87 2310.32 2291.98 2311.59 2291.08 2294.19 2266.09 2269.68 2226.05 2257.64 2206.39 2243.94 2182.46 2231.4 2155.73 2225.36 2142.84 2219.57 2129.37 2214 2115.21 2213.02 2112.73 2212.06 2110.25 2211.13 2107.77 2211.35 2100.36 2211.74 2090.86 2212.69 2079.44 2214.51 2057.27 2216.94 2036.64 2221.14 2004.97 2223.54 1986.89 2226.42 1966.25 2230.27 1945.77 2232.7 1932.74 2236.04 1919.67 2240.08 1906.25 2241.11 1906.85 2242.26 1907.46 2243.63 1908.11 2253 1912.62 2270.86 1918.94 2292.51 1922.51 2314.17 1926.09 2339.57 1926.93 2361.46 1925.37 2383.34 1923.8 2401.66 1919.84 2419.57 1913.9 2437.48 1907.95 2454.98 1900.01 2470.95 1890.91 2486.91 1881.8 2501.32 1871.54 2512.76 1862.05 2524.21 1852.56 2532.66 1843.86 2538.08 1836.98 2543.5 1830.1 2545.86 1825.05 2546.7 1821.43 2547.52 1817.81 2546.83 1815.59 2542.53 1812.78 2538.23 1809.98 2530.31 1806.56 2520.21 1804 2510.12 1801.43 2497.85 1799.71 2482.25 1797.83 2466.63 1795.94 2447.66 1793.89 2428.43 1792.44 2409.18 1791 2389.63 1790.16 2374.38 1790.69 2359.13 1791.21 2348.19 1793.1 2338.22 1796.36 2328.25 1799.62 2319.26 1804.26 2310.5 1809.92 2301.74 1815.57 2293.2 1822.25 2286.5 1826.71 2279.79 1831.18 2274.94 1833.43 2268.11 1837.53 2266.17 1838.7 2264.07 1840.04 2261.92 1841.56 2266.28 1829.4 2270.65 1817.57 2274.96 1806.19 2283.7 1783.13 2291.98 1763.69 2301.4 1745.56 2311.52 1726.1 2322.03 1708.56 2329.92 1695.67 2343.34 1673.74 2351.82 1661.22 2350.9 1660.54 2350.87 1660.52 2350.83 1660.51 2350.78 1660.51 2349.33 1660.57 2339.35 1671.72 2324.75 1692.26 2324.59 1692.48 2324.41 1692.76 2324.24 1692.99 2325.71 1684.84 2326.32 1673.65 2325.86 1661.32 2325.16 1642.45 2321.94 1620.88 2318.56 1593.72 2315.17 1566.55 2311.59 1533.77 2306.75 1506.6 2301.92 1479.44 2295.83 1457.89 2288.96 1435.25 2282.09 1412.61 2274.46 1388.88 2270.16 1376.27 2269.45 1374.2 2268.84 1372.47 2268.26 1371" fill="#48A3AA" fill-rule="evenodd"/><path d="M2546.99 1819C2541.33 1819.18 2534.34 1819.94 2524.99 1820.74 2510.72 1821.96 2491.01 1823.22 2471.12 1824.47 2451.22 1825.71 2431.12 1826.95 2412.97 1828.01 2394.83 1829.07 2378.64 1829.96 2364.61 1831.69 2350.57 1833.41 2338.7 1835.97 2327.21 1839.17 2315.72 1842.36 2304.58 1846.2 2286.98 1853.08 2269.37 1859.96 2252.61 1867.12 2240.7 1873.02 2240.03 1873.36 2232.61 1889.32 2233.02 1893.42 2233.89 1902.4 2233.82 1903.57 2243.2 1908.06 2252.59 1912.55 2270.48 1918.85 2292.16 1922.41 2313.84 1925.98 2339.29 1926.81 2361.2 1925.25 2383.11 1923.7 2401.47 1919.75 2419.4 1913.83 2437.33 1907.9 2454.86 1899.98 2470.85 1890.91 2486.83 1881.84 2501.27 1871.62 2512.72 1862.16 2524.18 1852.71 2532.65 1844.03 2538.08 1837.17 2543.5 1830.32 2545.86 1825.28 2546.7 1821.68 2546.92 1820.7 2547.04 1819.82 2546.99 1819" fill="#56C2C3" fill-rule="evenodd"/><path d="M2333.31 1629.46C2327.73 1710.88 2417.66 1731.91 2447.53 1678.8 2505.99 1685.58 2550.69 1647.59 2515.61 1589.6 2546.82 1544.79 2513.23 1477.76 2447.53 1499.76 2419.21 1454.35 2355.2 1457.73 2344.17 1519.82 2287.81 1503.36 2250.39 1607.14 2333.31 1629.46" fill="#B6F3F9" fill-rule="evenodd"/><path d="M2401.36 1570.93C2402.32 1548.7 2421.17 1556.92 2421.34 1569.09 2435.22 1562.72 2440.07 1571.75 2430.53 1580.3 2445.66 1588.53 2438.53 1600.38 2424.7 1594.21 2424.53 1616.55 2407.14 1610.23 2404.91 1597.2 2386.97 1607.4 2381.88 1590.42 2395.67 1582.68 2382.17 1580.92 2384.72 1561.61 2401.36 1570.93" fill="#8FC5F1" fill-rule="evenodd"/><path d="M2123.69 1635.95C2240.18 1567.21 2285.36 1714.6 2252.11 1750.68 2308.44 1773.88 2320.56 1915.9 2197.04 1903.94 2199.78 1994.08 1995.71 2003.21 2013.17 1879.34 1944.65 1908.04 1856.14 1764.57 1972.61 1710.5 1944.97 1617.69 2067.52 1569.32 2123.69 1635.95" fill="#B6F3F9" fill-rule="evenodd"/><path d="M2108.58 1750.1C2132.03 1727.55 2138.88 1751.98 2131.45 1763.18 2148.88 1765.2 2151.89 1792.22 2126.14 1787.82 2132.03 1812.97 2108.24 1818.45 2098.99 1800.34 2083.88 1813.77 2062.76 1799.11 2085.38 1779.78 2063.1 1784.88 2058.65 1756.41 2085.64 1757.63 2077.84 1736.86 2097.9 1720.56 2108.58 1750.1" fill="#8FC5F1" fill-rule="evenodd"/></g></svg>