<svg width="678" height="853" xmlns="http://www.w3.org/2000/svg" xmlns:xlink="http://www.w3.org/1999/xlink" xml:space="preserve" overflow="hidden"><defs><clipPath id="clip0"><rect x="1887" y="222" width="678" height="853"/></clipPath></defs><g clip-path="url(#clip0)" transform="translate(-1887 -222)"><path d="M2564.7 369.001C2564.36 368.992 2563.69 369.078 2562.75 369.245 2558.94 369.916 2550.3 372.016 2541.83 373.15 2533.36 374.28 2524.98 374.456 2510.71 375.625 2496.43 376.789 2476.25 378.954 2459.8 381.648 2443.35 384.345 2430.61 387.576 2420.34 392.151 2410.08 396.726 2402.28 402.654 2395.21 409.888 2388.13 417.127 2381.74 425.693 2374.92 435.139 2368.09 444.577 2360.82 454.926 2353.6 464.536 2346.4 474.137 2339.23 483.055 2332.42 492.57 2325.6 502.069 2319.14 512.177 2312.6 521.052 2306.05 529.935 2299.41 537.591 2292.09 544.683 2284.77 551.789 2276.74 558.378 2268.72 564.655 2260.72 570.948 2252.7 576.949 2246.94 582.517 2241.19 588.08 2237.68 593.217 2234.45 599.824 2231.2 606.423 2228.22 614.516 2226.79 623.679 2225.87 629.496 2225.59 635.734 2225.62 641.211 2222.29 630.54 2218.64 620.26 2214.32 609.877 2209.03 597.097 2202.82 584.243 2197.47 573.676 2192.15 563.104 2187.75 554.967 2184.81 551.406 2181.87 547.853 2180.4 548.919 2179.91 550.512 2179.42 552.098 2179.91 554.207 2183.12 560.599 2186.33 566.979 2192.31 577.723 2197.65 589.313 2202.99 600.894 2207.72 613.365 2211.88 625.217 2216.04 637.074 2219.66 648.432 2222.4 658.201 2225.14 667.978 2227.05 676.346 2228.81 685.604 2230.57 694.866 2232.24 705.245 2233.45 714.627 2234.65 724.009 2235.42 732.476 2235.88 742.275 2236.33 752.061 2236.48 763.303 2235.8 775.761 2235.74 777.127 2235.62 778.544 2235.53 779.919 2235.4 779.348 2235.37 779.27 2235.2 778.467 2234.08 773.308 2231.82 763.015 2229.02 754.273 2226.22 745.531 2222.9 738.348 2219.21 732.807 2215.51 727.252 2211.46 723.326 2207.13 720.632 2202.82 717.939 2198.24 716.465 2191.96 715.134 2185.67 713.802 2177.68 712.603 2170.61 711.559 2163.54 710.516 2157.39 709.601 2151.89 708.084 2146.4 706.568 2141.55 704.445 2135.12 701.374 2128.7 698.32 2120.68 694.316 2112.86 689.354 2105.04 684.397 2097.42 678.469 2090.78 673.52 2084.13 668.558 2078.46 664.589 2072.22 661.126 2065.98 657.651 2059.16 654.691 2053.31 651.602 2047.46 648.501 2042.56 645.257 2039.26 643.608 2035.96 641.967 2034.26 641.924 2033.22 642.332 2032.17 642.749 2031.76 643.672 2031.86 644.639 2031.97 645.618 2032.6 646.709 2034.19 647.981 2035.78 649.257 2038.34 650.743 2040.99 652.732 2043.62 654.725 2046.37 657.256 2049.56 660.684 2052.74 664.129 2056.39 668.494 2060.82 673.443 2065.24 678.378 2070.44 683.89 2074.35 688.443 2078.26 692.997 2080.91 696.593 2084.14 700.747 2087.38 704.905 2091.22 709.635 2094.36 714.232 2097.51 718.815 2099.97 723.27 2102.73 726.78 2105.49 730.276 2108.56 732.815 2113.07 735.191 2117.56 737.579 2123.49 739.787 2130.39 741.91 2137.29 744.036 2145.17 746.046 2153.38 747.795 2161.59 749.543 2170.18 751.017 2177.26 752.336 2184.33 753.659 2189.94 754.823 2194.44 756.571 2198.95 758.307 2202.37 760.631 2206.38 763.874 2210.4 767.13 2215.03 771.328 2218.81 775.245 2222.61 779.15 2225.59 782.81 2227.89 785.925 2230.19 789.035 2231.8 791.608 2233.04 794.534 2233.39 795.358 2233.7 796.205 2234 797.03 2233.31 802.936 2232.52 808.796 2231.57 814.294 2229.47 826.482 2226.73 837.084 2223.92 847.66 2221.1 858.241 2218.18 868.886 2214.5 880.678 2210.81 892.466 2206.32 905.495 2201 919.332 2195.67 933.165 2189.44 948.024 2183.69 960.868 2177.95 973.713 2172.66 984.633 2166.18 996.498 2162.34 1003.54 2158.1 1010.84 2153.85 1018.05 2154.71 1010.92 2156.15 1001.85 2157.55 992.804 2159.35 981.149 2161.08 969.555 2161.98 958.592 2162.86 947.629 2162.91 937.237 2162.37 928.095 2161.83 918.967 2160.72 911.14 2158.62 902.948 2156.5 894.743 2153.39 886.164 2149.17 877.98 2144.96 869.801 2139.64 862.012 2133.91 854.963 2128.2 847.927 2122.07 841.637 2114.5 834.631 2106.93 827.624 2097.93 819.926 2087.86 812.812 2077.81 805.694 2066.72 799.164 2056.36 792.467 2046.01 785.779 2036.42 778.918 2026.01 771.396 2015.61 763.861 2004.43 755.691 1994.66 747.95 1984.9 740.217 1976.56 732.914 1969.16 725.744 1961.76 718.587 1955.3 711.559 1948.89 702.77 1942.48 693.998 1936.11 683.473 1930.46 672.893 1924.81 662.312 1919.89 651.68 1915.8 642.869 1911.72 634.062 1908.48 627.078 1905.2 619.908 1901.92 612.738 1898.59 605.379 1895.81 599.992 1893.03 594.614 1890.79 591.203 1889.26 589.798 1887.73 588.389 1886.9 588.973 1887.01 594.481 1887.12 599.979 1888.17 610.483 1889.04 619.697 1889.92 628.912 1890.62 636.885 1891.95 645.485 1893.28 654.098 1895.26 663.412 1897.31 673.223 1899.35 683.022 1901.46 693.225 1903.66 703.002 1905.86 712.767 1908.18 722.14 1911.49 730.539 1914.79 738.954 1919.09 746.442 1924.63 753.886 1930.16 761.344 1936.95 768.78 1944.49 776.057 1952.04 783.351 1960.34 790.487 1968.84 797.03 1977.33 803.572 1986.04 809.543 1993.53 814.492 2001.01 819.441 2007.28 823.367 2012.46 827.715 2017.65 832.058 2021.75 836.817 2025.08 841.667 2028.41 846.518 2030.96 851.458 2033.95 857.218 2036.94 862.979 2040.36 869.577 2043.41 876.421 2046.46 883.273 2049.13 890.365 2051.91 897.097 2054.69 903.824 2057.59 910.216 2061.05 915.595 2064.51 920.982 2068.54 925.368 2074.23 929.462 2079.94 933.564 2087.29 937.357 2093.66 941.039 2100.03 944.712 2105.4 948.277 2110.63 952.466 2115.86 956.646 2120.97 961.461 2124.97 966.444 2128.96 971.428 2131.86 976.63 2134.25 982.391 2136.65 988.151 2138.55 994.509 2140.06 1000.85 2141.57 1007.18 2142.72 1013.52 2143.47 1019.69 2144.07 1024.54 2144.41 1029.34 2144.81 1033.34 2138.22 1044.44 2132.46 1054.23 2129.44 1060.57 2126.36 1067.06 2126.12 1069.85 2127.02 1071.91 2127.91 1073.96 2130 1075.23 2132.51 1074.97 2135.01 1074.7 2137.95 1072.91 2139.43 1072.01 2140.9 1071.1 2140.89 1071.1 2144.35 1065.7 2147.79 1060.28 2154.7 1049.45 2162.12 1036.84 2169.55 1024.22 2177.49 1009.85 2184.57 995.983 2184.78 995.575 2184.97 995.171 2185.18 994.75 2188 992.697 2191.48 990.011 2195.54 987.249 2199.99 984.204 2205.07 981.136 2209.35 979.212 2213.63 977.279 2217.15 976.454 2222.13 976.153 2227.12 975.857 2233.55 976.08 2239.37 976.377 2245.19 976.673 2250.42 977.055 2255.42 977.652 2260.43 978.232 2265.25 979.036 2271.34 980.629 2277.43 982.236 2284.82 984.633 2291.22 986.557 2297.61 988.482 2303.01 989.926 2309.46 991.399 2315.91 992.873 2323.41 994.376 2329.79 995.003 2336.16 995.643 2341.43 995.399 2345.9 994.698 2350.38 994.002 2354.06 992.851 2357.46 991.025 2360.84 989.2 2363.93 986.712 2366.7 983.456 2369.47 980.213 2371.93 976.201 2374.21 971.724 2376.51 967.235 2378.64 962.222 2380.44 957.878 2382.22 953.522 2383.69 949.729 2385.41 945.459 2387.13 941.206 2389.1 936.434 2391.49 932.211 2393.88 927.988 2396.7 924.302 2400.21 920.664 2403.74 917.034 2407.95 913.438 2411.87 910.689 2415.78 907.939 2419.4 906.024 2423.19 904.464 2426.97 902.9 2430.92 901.702 2433.85 901.096 2436.79 900.482 2438.7 900.473 2439.7 900.173 2440.7 899.876 2440.76 899.283 2440.51 898.789 2440.25 898.295 2439.65 897.887 2436.5 898.184 2433.37 898.471 2427.66 899.447 2421.77 900.933 2415.88 902.406 2409.79 904.387 2403.96 906.036 2398.13 907.686 2392.56 909.005 2386.25 911.522 2379.95 914.031 2372.91 917.76 2367.05 920.947 2361.2 924.147 2356.51 926.833 2351.75 929.913 2347.01 932.98 2342.2 936.442 2338.07 939.587 2333.94 942.736 2330.48 945.562 2326.98 948.2 2323.47 950.829 2319.89 953.282 2316.48 954.678 2313.06 956.083 2309.78 956.448 2305.73 956.208 2301.68 955.963 2296.82 955.116 2291.9 953.918 2286.98 952.719 2281.97 951.16 2277.24 949.575 2272.51 947.981 2268.05 946.362 2263.3 945.584 2258.56 944.802 2253.52 944.858 2248.76 945.726 2243.99 946.594 2239.5 948.277 2234.48 950.464 2229.47 952.642 2223.92 955.314 2218.94 958.626 2213.96 961.934 2209.55 965.86 2204.07 971.26 2198.89 976.355 2192.92 982.575 2189.46 986.184 2194.58 975.681 2199.32 965.156 2204.12 953.544 2210.38 938.324 2216.72 921.235 2221.72 905.641 2226.73 890.034 2230.41 875.936 2233.91 869.006 2237.42 862.081 2240.75 862.331 2245.4 861.441 2250.06 860.539 2256.05 858.494 2263.54 855.208 2271.03 851.917 2280.03 847.377 2288.53 842.033 2297.02 836.676 2305 830.507 2313.79 823.556 2322.56 816.618 2332.11 808.907 2336.15 804.719 2340.19 800.518 2338.66 799.813 2337.03 799.869 2335.4 799.912 2333.65 800.694 2332.19 801.648 2330.72 802.605 2329.52 803.748 2325.73 807.167 2321.94 810.6 2315.51 816.344 2310.19 820.566 2304.87 824.776 2300.63 827.483 2295.07 830.846 2289.52 834.214 2282.73 838.192 2276.12 841.603 2269.51 845.01 2263.12 847.836 2256.75 850.19 2250.37 852.532 2244.02 854.392 2240.73 854.456 2237.44 854.525 2237.25 852.862 2238.49 842.901 2239.73 832.938 2242.42 814.767 2244.13 799.877 2245.82 784.988 2246.51 773.407 2246.47 761.288 2246.42 749.169 2245.61 736.565 2244.21 724.666 2242.81 712.767 2240.81 701.593 2238.06 688.916 2237.13 684.603 2236.08 680.084 2234.99 675.521 2235.77 673.301 2236.68 670.573 2237.76 667.579 2239.96 661.543 2242.79 654.515 2247.49 647.895 2252.2 641.275 2258.75 635.072 2266.07 629.968 2273.4 624.856 2281.51 620.831 2290.99 616.716 2300.47 612.605 2311.35 608.39 2320.52 604.335 2329.69 600.267 2337.14 596.362 2345.63 590.795 2354.12 585.244 2363.65 578.04 2370.79 571.661 2377.94 565.282 2382.69 559.74 2387.01 553.318 2391.31 546.895 2395.18 539.605 2399.41 531.345 2403.64 523.075 2408.23 513.839 2412.26 504.577 2416.3 495.32 2419.77 486.036 2424.61 476.491 2429.46 466.933 2435.68 457.104 2442.82 448.28 2449.97 439.461 2458.03 431.643 2467.31 423.704 2476.59 415.774 2487.09 407.702 2497.88 400.742 2508.65 393.779 2519.73 387.906 2530.91 382.971 2542.08 378.03 2553.39 374.027 2559.49 371.664 2564.07 369.894 2565.75 369.035 2564.7 369.001" fill="#41908B" fill-rule="evenodd"/><path d="M2519.11 379.002C2515.28 379.023 2509.65 379.306 2502.44 380.011 2494.34 380.814 2483.54 382.464 2471.96 386.08 2460.44 389.68 2447.21 395.054 2434.19 403.202 2423.85 409.692 2414.01 418.094 2404.93 428.365 2397.2 437.084 2390.21 446.925 2384.02 457.788 2377.71 468.874 2372.22 480.683 2366.01 492.241 2364.67 494.737 2363.3 497.232 2361.89 499.707 2356.83 508.59 2351.5 516.906 2345.47 524.513 2338.26 533.632 2330.15 541.514 2321.35 547.88 2313.29 553.73 2303.62 558.756 2295.23 563.506 2285.99 568.743 2277.66 574.151 2270.17 580.31 2261.28 587.621 2253.93 595.331 2247.97 602.938 2241.35 611.362 2237.05 619.664 2234.52 627.405 2228.42 646.232 2228.63 657.537 2229.37 657.679 2230.11 657.821 2231.41 646.352 2238.36 628.779 2241.18 621.645 2245.59 614.111 2252.17 606.37 2258.19 599.279 2265.49 592.131 2274.2 585.336 2281.47 579.67 2289.56 574.679 2298.69 569.73 2307.04 565.212 2316.96 560.242 2325.75 554.048 2335.26 547.33 2343.96 539.027 2351.63 529.418 2358.01 521.424 2363.62 512.769 2368.81 503.642 2370.26 501.09 2371.66 498.543 2373.02 495.991 2379.36 484.136 2384.75 472.371 2390.77 461.607 2396.65 451.113 2403.22 441.611 2410.46 433.188 2418.98 423.261 2428.13 415.091 2437.74 408.734 2449.96 400.642 2462.59 395.01 2473.62 391.055 2484.58 387.107 2495.06 384.895 2502.91 383.52 2516.96 381.081 2525.05 380.165 2525 379.53 2524.98 379.208 2522.93 378.98 2519.11 379.002ZM1893.12 605.326C1892.39 605.511 1894.84 620.15 1901.48 644.999 1904.36 655.755 1908.3 669.212 1913.47 683.387 1916.57 691.901 1920.38 701.002 1925.14 710.143 1929.01 717.566 1933.56 725.263 1939 732.651 1944.7 740.383 1951.33 747.616 1958.75 754.588 1967.54 762.856 1976.97 770.674 1987.1 778.483 1995.72 785.137 2004.76 791.502 2013.65 798.255 2019.36 802.619 2025.01 807.095 2029.41 812.408 2031.07 814.397 2032.6 816.532 2034.03 818.795 2035.9 821.742 2037.61 824.877 2039.26 828.056 2042.44 834.212 2045.3 840.401 2048.99 846.548 2052.52 852.411 2056.72 857.798 2061.52 862.505 2066.88 867.729 2072.94 872.368 2078.1 876.779 2085.79 883.355 2092.77 890.108 2098.92 897.32 2106.59 906.327 2113.28 916.198 2119.24 925.472 2125.75 935.609 2131.19 944.9 2135.46 954.556 2140.03 964.934 2143.04 974.603 2144.43 983.958 2145.76 992.656 2145.31 1004.17 2145.4 1011.04 2145.69 1032.79 2147.35 1045.02 2148.03 1045 2148.73 1044.98 2148.35 1032.56 2149.19 1011.09 2149.46 1004.25 2150.41 992.91 2149.33 983.322 2148.18 973.391 2145.35 963.1 2140.86 952.258 2136.65 942.086 2131.24 932.331 2124.81 921.95 2118.96 912.461 2112.26 902.255 2104.36 892.745 2097.99 885.091 2090.8 877.986 2082.95 871.161 2077.6 866.517 2071.69 861.934 2066.84 857.106 2062.54 852.862 2058.76 847.97 2055.56 842.613 2052.15 836.926 2049.39 830.891 2046.11 824.525 2044.43 821.227 2042.61 817.893 2040.54 814.65 2038.95 812.176 2037.23 809.766 2035.32 807.468 2030.21 801.399 2024.13 796.541 2018.28 792.142 2009.21 785.313 2000.15 778.998 1991.65 772.534 1981.6 764.892 1972.28 757.328 1963.61 749.365 1956.36 742.689 1949.9 735.873 1944.39 728.613 1939.09 721.668 1934.57 714.331 1930.65 707.196 1925.85 698.464 1921.92 689.667 1918.65 681.419 1913.18 667.653 1908.75 654.337 1905.42 643.856 1897.69 619.523 1893.86 605.137 1893.12 605.326ZM2056.44 657.602C2056.41 657.615 2056.39 657.623 2056.38 657.636 2056.01 658.151 2065.23 664.693 2078.85 676.858 2084.76 682.146 2090.09 687.652 2097.04 695.032 2102.32 700.65 2108.66 707.338 2116.06 712.682 2123.42 717.969 2131.92 722.38 2141.3 725.413 2144.21 726.363 2147.17 727.11 2150.18 727.745 2155.43 728.867 2160.78 729.614 2165.79 730.331 2174.2 731.564 2181.77 732.904 2188.71 735.851 2196.86 739.283 2203.86 744.515 2209.53 749.816 2216.52 756.379 2221.49 763.221 2224.92 769.609 2232.45 783.586 2234.54 793.44 2235.1 793.263 2235.66 793.096 2234.76 783.212 2227.7 768.213 2224.47 761.353 2219.54 753.939 2212.39 746.847 2206.63 741.117 2199.35 735.422 2190.57 731.551 2183.02 728.265 2175.01 726.715 2166.51 725.448 2161.48 724.692 2156.23 723.953 2151.21 722.887 2148.33 722.282 2145.53 721.564 2142.83 720.697 2133.93 717.841 2125.84 713.725 2118.8 708.82 2111.81 703.962 2105.48 697.54 2100.07 692.098 2092.99 684.938 2087.2 679.384 2080.99 674.349 2066.99 663.001 2057.37 657.468 2056.44 657.602ZM2400.93 911.58C2399.45 911.649 2395.14 912.736 2389.72 916.971 2384.37 921.146 2379.04 926.481 2372.29 934.565 2368.06 939.599 2364.01 945.592 2358.92 951.137 2354.83 955.587 2349.85 959.822 2344 962.923 2338.41 965.913 2331.97 967.76 2325.1 968.4 2317.36 969.126 2309.39 968.508 2301.04 967.266 2298.81 966.927 2296.55 966.54 2294.29 966.102 2287.91 964.891 2281.31 963.34 2275.14 961.957 2265.58 959.809 2256.66 957.898 2247.31 958.061 2238.26 958.271 2229.88 960.887 2222.86 964.41 2214.44 968.619 2206.73 974.534 2201.04 978.924 2184.59 991.578 2175.02 999.795 2175.4 1000.3 2175.79 1000.8 2186.08 993.502 2203.01 981.596 2208.84 977.493 2216.67 971.884 2224.67 968.146 2231.34 965.032 2239.17 962.747 2247.37 962.704 2256.02 962.627 2264.48 964.594 2274.06 966.759 2280.2 968.168 2286.81 969.753 2293.37 970.994 2295.68 971.433 2298 971.832 2300.3 972.18 2308.88 973.469 2317.29 974.04 2325.58 973.207 2333.03 972.455 2340.05 970.324 2346.18 966.935 2352.52 963.409 2357.8 958.757 2362.02 953.907 2367.25 947.881 2371.1 941.79 2374.99 936.743 2381.45 928.406 2386.13 923.161 2391.1 918.608 2396.92 913.251 2401.6 912.044 2401.48 911.671 2401.46 911.602 2401.28 911.572 2400.93 911.58" fill="#2A767B" fill-rule="evenodd"/><path d="M2299.06 774.583C2288.75 802.111 2318.67 868.925 2400.57 849.769 2418.4 871.719 2481.04 866.355 2489.37 815.349 2510.84 818.066 2540.17 766.507 2500.12 729.62 2507.95 704.903 2469.86 643.921 2420.09 662.158 2403.24 628.554 2347.89 642.921 2344.23 662.291 2276.75 672.419 2277.33 750.231 2299.06 774.583" fill="#FF619B" fill-rule="evenodd"/><path d="M2142.46 581.242C2204.49 590.905 2255.98 559.267 2258.28 517.322 2283.52 511.266 2320.79 456.305 2276.26 404.808 2302.04 387.11 2304.41 311.35 2249.47 289.087 2225.82 216.823 2127.26 205.73 2094 242.448 2076.94 220.945 1989.73 228.366 1984.44 287.644 1923.77 283.985 1874.99 392.255 1927 437.022 1885.3 521.565 1983.77 576.909 2018.29 556.218 2035.13 623.788 2123.21 615.062 2142.46 581.242" fill="#FF619B" fill-rule="evenodd"/><path d="M2122.44 294.004C2113.63 294.103 2105.23 295.644 2097.92 297.809 2080.19 302.944 2065.15 312.155 2056.67 317.884 2047.47 324.106 2042.64 328.37 2043.27 329.448 2043.89 330.534 2049.97 328.258 2059.97 323.84 2068.75 319.949 2085.06 312.232 2100.73 308.746 2113.29 306.066 2128.83 304.722 2142.12 309.342 2145.16 310.394 2148.02 311.739 2150.68 313.388 2165.08 321.576 2174.52 339.462 2181.2 351.829 2193.23 374.66 2199.73 390.69 2201.66 390.008 2203.6 389.338 2200.65 372.342 2190.26 347.573 2184.77 334.107 2175.39 314.409 2157.1 302.777 2153.62 300.724 2149.97 299.041 2146.15 297.71 2138.26 294.974 2130.19 293.927 2122.44 294.004ZM2071.11 361.349C2069.56 361.392 2066.23 364.041 2061.74 369.009 2057.03 374.231 2049.49 383.97 2046.54 396.964 2045.02 404.706 2045.82 413.192 2049.34 421.17 2052 427.229 2055.96 432.365 2060.66 436.311 2071.92 445.402 2084.98 448.975 2092.72 450.525 2101.08 452.195 2106.15 452.238 2106.62 450.799 2107.13 449.279 2102.81 446.553 2095.35 442.817 2088.77 439.532 2076.71 434.233 2069.01 426.765 2065.9 423.854 2063.22 420.126 2061.33 415.875 2058.82 410.246 2057.98 404.376 2058.72 399.085 2059.7 389.634 2065.34 379.212 2068.15 373.329 2071.35 366.605 2072.89 362.349 2071.66 361.49 2071.52 361.392 2071.33 361.349 2071.11 361.349ZM1983.42 364.758C1980.39 364.887 1971.6 379.113 1967.86 404.418 1965.9 418.083 1967.07 434.387 1973.83 450.576 1973.87 450.675 1973.91 450.787 1973.96 450.885 1981.69 469.389 1992.96 483.525 2004.91 493.054 2023.99 507.984 2039.71 506.928 2040.49 504.42 2041.27 501.925 2026.31 497.507 2013.42 483.602 2004.09 473.936 1995.39 461.264 1988.38 444.805 1988.38 444.805 1988.26 444.53 1988.26 444.53 1982.6 431.076 1980.84 417.468 1981.22 405.638 1981.88 382.446 1986.42 365.604 1983.69 364.788 1983.61 364.767 1983.52 364.758 1983.42 364.758ZM2099.89 381.982C2094.25 381.995 2091.09 383.498 2090.97 385.018 2090.81 387.169 2095.43 388.26 2101.39 390.643 2101.79 390.832 2102.19 391.017 2102.6 391.193 2100.65 392.82 2098.38 395.47 2097.28 399.506 2096.96 401.318 2097.03 403.165 2097.49 404.956 2098.4 408.498 2100.67 411.147 2103.24 412.685 2105.41 413.904 2107.35 414.523 2108.98 414.75 2108.49 418.666 2107.97 421.5 2109.15 422.162 2110.91 423.149 2116.18 419.392 2118.73 409.817 2120.04 405.814 2120.79 400.142 2118.77 394.263 2117.89 391.656 2116.51 389.226 2114.67 387.092 2110.75 383.42 2106.44 382.321 2103.29 382.136 2102.07 382.025 2100.94 381.982 2099.89 381.982ZM2164.32 391.017C2164.27 391.017 2164.22 391.03 2164.18 391.03 2162.61 391.347 2162.41 396.788 2162.83 405.849 2163.2 413.72 2164.48 428.483 2162.58 440.915 2161.34 449.546 2158.66 458.636 2154.24 467.607 2151.95 472.257 2149.32 476.586 2146.47 480.558 2138.76 491.023 2130.6 497.846 2121.97 501.221 2108.3 507.19 2095.43 504.841 2095.14 507.04 2094.84 509.238 2105.31 516.208 2125.23 511.832 2136.81 508.985 2148.58 501.388 2157.89 489.12 2161.42 484.581 2164.61 479.544 2167.31 474.061 2172.53 463.484 2175.27 452.59 2176.01 442.323 2177 426.722 2173.55 412.599 2170.97 404.384 2168.28 395.843 2165.83 391.038 2164.32 391.017ZM2107.23 394.383 2107.23 394.383C2107.94 395.152 2108.42 396.14 2108.74 397.394 2109.47 400.219 2109.39 405.024 2109.48 408.352 2109.48 408.429 2109.48 408.507 2109.48 408.584 2108.64 408.124 2107.86 407.596 2107.37 406.991 2106.35 405.926 2105.34 404.418 2104.89 402.946 2104.64 402.177 2104.58 401.46 2104.69 400.825 2104.66 398.858 2106.15 396.35 2107.23 394.383ZM2380.59 684.408C2379.02 684.331 2375.93 685.301 2371.61 687.367 2366.37 689.862 2357.29 695.071 2350.31 704.307 2343.42 714.004 2340.06 726.259 2339.57 739.893 2339.42 742.177 2339.35 744.539 2339.4 746.961 2339.59 756.356 2341.45 765.383 2345.58 773.464 2351.39 784.182 2360.21 791.053 2367.19 795.184 2380.43 803.102 2389.59 804.386 2390.48 802.561 2391.37 800.736 2383.33 795.781 2373.24 786.819 2367.89 782.026 2361.08 775.345 2357.71 767.474 2354.96 761.612 2353.96 754.686 2353.78 746.66 2353.74 744.607 2353.75 742.529 2353.78 740.485 2354.39 728.196 2355.92 718.628 2360.4 710.89 2364.22 703.667 2371.87 696.844 2375.63 693.138 2380.04 688.784 2382.37 685.95 2381.64 684.851 2381.47 684.584 2381.12 684.443 2380.59 684.408ZM2444.62 714.209C2444.52 714.209 2444.43 714.231 2444.38 714.278 2443.74 714.806 2445.66 718.212 2449.18 723.652 2452.31 728.5 2458.24 737.119 2460.64 745.926 2462.28 751.564 2462.74 757.821 2462 764.627 2461.52 769.054 2460.58 773.365 2459.39 777.367 2456.09 787.832 2452.51 794.823 2447.25 799.869 2441.72 805.773 2434.26 805.288 2434.28 806.31 2434.29 807.345 2441.28 810.553 2450.66 803.935 2457.44 798.89 2462.88 790.765 2466.51 779.665 2468.03 775.276 2469.17 770.484 2469.7 765.439 2470.49 757.701 2469.72 750.357 2467.5 743.762 2463.82 733.305 2456.89 725.28 2452.66 720.882 2448.5 716.554 2445.6 714.223 2444.62 714.209ZM2414.23 716.485C2412.94 716.498 2411.65 716.618 2410.36 716.85 2400.69 719.092 2393.67 725.477 2389.99 729.226 2385.93 733.361 2384.01 736.11 2384.55 736.779 2385.13 737.492 2388.14 735.912 2392.94 732.855 2397.15 730.171 2404.55 724.949 2411.69 724.073 2412.89 723.841 2414.11 723.785 2415.35 723.897 2412.69 725.962 2408.27 731.845 2405.04 740.992 2403.91 743.685 2403.11 747.068 2403.36 750.675 2403.62 754.304 2404.91 757.743 2407.37 760.578 2412.76 765.451 2419.24 766.439 2422.8 766.692 2426.74 766.967 2429.02 766.593 2429.23 765.748 2429.45 764.867 2427.45 763.601 2423.92 762.063 2421.86 761.153 2418.65 759.985 2416 758.314 2417.44 757.864 2419.05 757.073 2420.67 755.721 2422.39 754.106 2423.54 751.83 2423.67 749.237 2423.76 747.343 2423.29 745.475 2422.34 743.813 2419.78 740.253 2416.56 738.858 2414.57 738.351 2414.2 738.265 2413.85 738.196 2413.52 738.141 2415.5 731.592 2417.55 726.478 2417.69 724.271 2419.24 724.632 2420.84 725.224 2422.45 726.018 2425.52 727.5 2428.46 729.613 2431 731.721 2437.1 737.351 2440.72 741.847 2442.15 747.025 2444.31 752.26 2440.13 757.413 2440.97 758.018 2441.81 758.632 2448.05 756.06 2447.39 746.046 2446.58 739.317 2442.74 732.425 2436.06 726.237 2433.29 723.446 2429.8 720.818 2425.73 718.98 2422.01 717.301 2418.12 716.43 2414.23 716.485ZM2412.21 742.748C2413.4 744.157 2415.37 746.037 2415.88 747.588 2416.05 747.862 2416.1 748.288 2416.04 748.773 2415.98 749.434 2415.74 750.16 2415.42 750.654 2414.71 751.839 2412.93 753.114 2411.68 754.128 2411.22 753.157 2411.06 751.916 2411.1 750.422 2411.16 748.236 2411.68 745.475 2412.1 743.165 2412.13 743.023 2412.18 742.89 2412.21 742.748" fill="#C3437F" fill-rule="evenodd"/></g></svg>